<?xml version="1.0" encoding="UTF-8"?>
<svg version="1.1" xmlns="http://www.w3.org/2000/svg" width="1298" height="237">
<path d="M0 0 C7.62353043 -0.04636314 15.24704622 -0.08188943 22.87068558 -0.10362434 C26.41074864 -0.11405661 29.95071516 -0.12820554 33.49072266 -0.15087891 C37.56153281 -0.17678851 41.63224172 -0.18647738 45.703125 -0.1953125 C46.97303284 -0.20563507 48.24294067 -0.21595764 49.55133057 -0.22659302 C50.73225281 -0.22674408 51.91317505 -0.22689514 53.12988281 -0.22705078 C54.16912903 -0.231492 55.20837524 -0.23593323 56.27911377 -0.24050903 C59.0736837 0.00651317 60.68817878 0.4309728 63 2 C64.265625 4.8203125 64.265625 4.8203125 65.25 8.125 C65.75273438 9.76855469 65.75273438 9.76855469 66.265625 11.4453125 C66.62914062 12.70988281 66.62914062 12.70988281 67 14 C67.36609375 13.48050781 67.7321875 12.96101563 68.109375 12.42578125 C74.24445891 4.52320888 82.23704698 1.35350635 92 0 C94.30656206 -0.08397476 96.61525365 -0.11781551 98.92333984 -0.11352539 C99.5874588 -0.11367142 100.25157776 -0.11381744 100.93582153 -0.1139679 C103.11089449 -0.11327634 105.28587968 -0.10551973 107.4609375 -0.09765625 C108.97693841 -0.09578938 110.49293992 -0.09436675 112.00894165 -0.09336853 C115.98404631 -0.08956456 119.95911398 -0.07975253 123.9342041 -0.06866455 C127.99649556 -0.0584047 132.05879304 -0.05386114 136.12109375 -0.04882812 C144.08074607 -0.03812822 152.04036842 -0.02107746 160 0 C160.00586624 0.91010834 160.01173248 1.82021667 160.01777649 2.75790405 C160.07560804 11.32225236 160.14762931 19.8863372 160.23571491 28.45042992 C160.28050017 32.85365353 160.31973794 37.25678287 160.34643555 41.66015625 C160.37238767 45.9072852 160.41273162 50.15405292 160.46318626 54.40095901 C160.47991002 56.02367292 160.49138988 57.64644938 160.49761391 59.26923752 C160.5071957 61.53713879 160.53518101 63.80410439 160.56762695 66.07177734 C160.57873001 67.36417328 160.58983307 68.65656921 160.60127258 69.98812866 C160.73285263 70.9820462 160.86443268 71.97596375 161 73 C164.71013399 75.47342266 166.61060262 75.38503486 171 75 C174.1850357 73.23984869 174.83296972 72.50109084 176 69 C176.11800406 66.77722418 176.17694326 64.55116449 176.20532227 62.32543945 C176.21522186 61.652005 176.22512146 60.97857056 176.23532104 60.284729 C176.26688389 58.06094873 176.29167275 55.8371471 176.31640625 53.61328125 C176.33698029 52.07056628 176.35797688 50.5278569 176.37937927 48.9851532 C176.4345535 44.92622398 176.48398325 40.86724427 176.53222656 36.80822754 C176.59131144 31.93729891 176.65751383 27.06646247 176.72252655 22.19561005 C176.8204776 14.79712971 176.90937354 7.39859003 177 0 C187.89 0 198.78 0 210 0 C210.0093457 2.63436035 210.01869141 5.2687207 210.02832031 7.98291016 C210.06210554 16.69223297 210.11766315 25.40131922 210.18390274 34.11045265 C210.22339176 39.39021666 210.25557334 44.66981352 210.27099609 49.94970703 C210.28615316 55.04626601 210.32058214 60.14236553 210.36830902 65.23871994 C210.38313256 67.18189879 210.39104157 69.12514324 210.39188385 71.06837845 C210.39425232 73.79298998 210.421322 76.51633052 210.45410156 79.24072266 C210.4490712 80.04201599 210.44404083 80.84330933 210.43885803 81.66888428 C210.551612 87.73654159 212.38542865 91.38542865 216.75 95.75 C218 97 218 97 218 99 C212.94641986 99.14845558 207.89411117 99.25726186 202.83886719 99.32958984 C201.11989229 99.35974161 199.40107098 99.4006713 197.68261719 99.45263672 C195.20990136 99.52553181 192.73922006 99.55946901 190.265625 99.5859375 C189.49881409 99.61690521 188.73200317 99.64787292 187.94195557 99.67977905 C185.75878906 99.68115234 185.75878906 99.68115234 182 99 C179.48339844 95.96337891 179.48339844 95.96337891 178 93 C177.278125 93.61875 176.55625 94.2375 175.8125 94.875 C167.6805742 101.01912172 156.86034269 100.57773464 147.125 99.375 C139.52754389 98.00542204 134.12422449 94.76475255 129 89 C128.61070312 89.39832031 128.22140625 89.79664063 127.8203125 90.20703125 C118.10179975 99.41050761 104.94845303 99.15978009 92.28125 99.09765625 C91.18276733 99.0962413 90.08428467 99.09482635 88.95251465 99.09336853 C85.46831457 99.08780257 81.98418042 99.07525639 78.5 99.0625 C76.1276051 99.0574806 73.75520918 99.05291846 71.3828125 99.04882812 C65.58851944 99.0378443 59.79426443 99.0211403 54 99 C53.32678716 96.75194998 52.66165877 94.50147776 52 92.25 C51.62875 90.99703125 51.2575 89.7440625 50.875 88.453125 C50 85 50 85 50 81 C40.76 81.33 31.52 81.66 22 82 C20.68 87.61 19.36 93.22 18 99 C7.77 99 -2.46 99 -13 99 C-12.34083422 93.06750794 -11.66812573 88.05890191 -10.23413086 82.38818359 C-10.05842056 81.68610275 -9.88271027 80.98402191 -9.70167542 80.26066589 C-9.32392834 78.75416012 -8.94355168 77.2483116 -8.56074333 75.74308395 C-7.95404314 73.35594104 -7.35524422 70.96693552 -6.75843811 68.57730103 C-5.06162455 61.78968533 -3.3496899 55.00590085 -1.63549805 48.22265625 C-0.58356862 44.05780125 0.46033774 39.89099772 1.4996624 35.7229805 C2.08718325 33.3777431 2.68411447 31.03503084 3.28126526 28.69223022 C3.64253301 27.24595765 4.00331214 25.79956291 4.36352539 24.35302734 C4.68027725 23.09888031 4.99702911 21.84473328 5.32337952 20.55258179 C6.32218665 15.30836571 6.87881646 11.49398798 4.125 6.8125 C3.42375 5.884375 2.7225 4.95625 2 4 C1.31158334 2.67776525 0.64001174 1.34633101 0 0 Z M35 25 C33.85478288 29.62503244 32.71562913 34.25150047 31.58203125 38.87939453 C31.19566852 40.45304474 30.80766154 42.02629222 30.41796875 43.59912109 C29.85763137 45.8619121 29.3032525 48.12609275 28.75 50.390625 C28.48751465 51.44240936 28.48751465 51.44240936 28.21972656 52.51544189 C27.41871198 55.81811607 27 58.57284955 27 62 C32.94 62 38.88 62 45 62 C42.31464132 49.56778391 39.32098391 37.276752 36 25 C35.67 25 35.34 25 35 25 Z " fill="#A71942" transform="translate(665,64)"/>
<path d="M0 0 C0 27.72 0 55.44 0 84 C-47.85 84 -95.7 84 -145 84 C-145 60.9 -145 37.8 -145 14 C-131.14790997 5.91961415 -131.14790997 5.91961415 -124.5625 3.625 C-123.89541016 3.37878906 -123.22832031 3.13257812 -122.54101562 2.87890625 C-106.70250052 -2.85491821 -91.95723801 0.13812432 -77.11645508 6.9987793 C-75.04667826 7.97620481 -72.98355147 8.96787983 -70.9284668 9.97583008 C-57.41447484 16.49848259 -45.18239511 19.09097596 -30.6875 14.0625 C-23.80342209 11.20812623 -17.65162392 7.27047613 -11.43359375 3.20703125 C-4.66359623 -1.16589906 -4.66359623 -1.16589906 0 0 Z M-126.4296875 31.0546875 C-131.97681784 37.92650568 -135.01172231 45.23496144 -134.5234375 54.10546875 C-133.05294711 62.23706113 -128.78894869 68.47021454 -122.1875 73.3359375 C-115.26030244 78.01720773 -108.9137947 79.71111773 -100.58203125 78.59765625 C-92.72912765 76.77996449 -85.77187926 72.53127241 -81 66 C-77.46311004 59.57692388 -77 55.59837274 -77 48 C-86.24 48 -95.48 48 -105 48 C-105 49.98 -105 51.96 -105 54 C-98.07 54.33 -91.14 54.66 -84 55 C-86.98374397 62.95665058 -89.27113256 67.31351707 -96.94921875 70.9140625 C-103.40956756 72.87968587 -110.80043641 72.43615913 -116.8125 69.3125 C-121.59571576 65.84232386 -125.52540826 61.89836695 -127 56 C-128.00719856 48.39156761 -126.59543852 42.21541324 -122 36 C-116.51732427 31.26644234 -111.25905882 29.93782353 -104.140625 29.68359375 C-103.02558594 29.64169922 -101.91054687 29.59980469 -100.76171875 29.55664062 C-99.60285156 29.51732422 -98.44398437 29.47800781 -97.25 29.4375 C-95.48849609 29.37272461 -95.48849609 29.37272461 -93.69140625 29.30664062 C-90.79438549 29.20065206 -87.89728065 29.09858362 -85 29 C-85 27.02 -85 25.04 -85 23 C-88.93724069 22.88213212 -92.87401761 22.81219826 -96.8125 22.75 C-97.91271484 22.71648437 -99.01292969 22.68296875 -100.14648438 22.6484375 C-109.69159417 22.53581084 -119.28708258 24.18812528 -126.4296875 31.0546875 Z M-69 23 C-69.09987254 27.51654375 -69.1719343 32.03247989 -69.21972656 36.54980469 C-69.23967724 38.08214534 -69.26684816 39.61441152 -69.30175781 41.14648438 C-69.52795927 51.33885608 -69.2556111 59.96742067 -63.17578125 68.5859375 C-56.52424276 74.97253001 -49.85039732 78.51719676 -40.5390625 79.09375 C-32.50356899 78.79705486 -24.89812933 75.4253785 -19 70 C-13.96926665 63.21485124 -11.8427049 57.68419412 -11.90234375 49.26953125 C-11.9037587 48.51911057 -11.90517365 47.76868988 -11.90663147 46.99552917 C-11.9122244 44.6011454 -11.92477556 42.20685547 -11.9375 39.8125 C-11.94251592 38.18815239 -11.94707866 36.56380332 -11.95117188 34.93945312 C-11.96219152 30.95959931 -11.97945127 26.97981556 -12 23 C-13.98 23 -15.96 23 -18 23 C-18.0093457 23.95777344 -18.01869141 24.91554687 -18.02832031 25.90234375 C-18.06848337 29.48857496 -18.13431125 33.07397179 -18.20751953 36.65966797 C-18.23557787 38.20545657 -18.25686706 39.75138461 -18.27099609 41.29736328 C-18.43633616 58.37148127 -18.43633616 58.37148127 -24.640625 66.0234375 C-30.41034534 70.86888226 -35.493632 72.30534652 -43 71.9375 C-49.46260871 71.09238963 -53.88860241 68.16696068 -58.375 63.5625 C-61.67108205 58.36483215 -62.26821611 53.49099531 -62.4140625 47.4140625 C-62.44311172 46.36138687 -62.44311172 46.36138687 -62.4727478 45.28744507 C-62.53207569 43.06675001 -62.57873917 40.84600177 -62.625 38.625 C-62.66322302 37.11065566 -62.70227722 35.59633206 -62.7421875 34.08203125 C-62.83773734 30.38821169 -62.92193937 26.6942353 -63 23 C-64.98 23 -66.96 23 -69 23 Z " fill="#A1C85F" transform="translate(205,106)"/>
<path d="M0 0 C47.85 0 95.7 0 145 0 C145 17.16 145 34.32 145 52 C137.125 48.625 137.125 48.625 134 46 C137.38168431 49.68006822 140.42521756 51.9785845 145 54 C145 55.32 145 56.64 145 58 C136.59429776 55.61410199 129.73121349 49.49537528 124 43 C124 42.34 124 41.68 124 41 C123.38125 40.731875 122.7625 40.46375 122.125 40.1875 C120 39 120 39 118 36 C114.4701194 33.51600995 111.2072064 33.78607425 107 34 C105.824375 34.226875 104.64875 34.45375 103.4375 34.6875 C99.25881553 35.06738041 97.69721753 33.84860876 94 32 C91.79803968 31.85546979 89.65017496 31.9407147 87.4453125 32.01171875 C83.23569905 31.99154488 78.94271985 31.50876644 75 30 C74.50628906 29.3296875 74.01257813 28.659375 73.50390625 27.96875 C72.1617035 25.79718294 72.1617035 25.79718294 69.73828125 25.390625 C68.53751953 25.32101563 68.53751953 25.32101563 67.3125 25.25 C66.50425781 25.19328125 65.69601563 25.1365625 64.86328125 25.078125 C63.94095703 25.03945312 63.94095703 25.03945312 63 25 C65.86312853 26.1829154 65.86312853 26.1829154 68.4375 25.75 C69.7059375 25.87375 69.7059375 25.87375 71 26 C71.5775 26.804375 72.155 27.60875 72.75 28.4375 C75.31215495 31.35550981 75.87836498 31.39884658 79.5625 31.75 C80.70912109 31.80414063 80.70912109 31.80414063 81.87890625 31.859375 C84 32 84 32 87 33 C88.7015625 32.9690625 88.7015625 32.9690625 90.4375 32.9375 C94 33 94 33 95.9453125 33.9921875 C98.30234953 35.14830072 99.8295269 35.23721872 102.4375 35.1875 C103.22640625 35.17460938 104.0153125 35.16171875 104.828125 35.1484375 C107.10975991 35.05839449 107.10975991 35.05839449 109.6875 34.3125 C113.2481592 33.83132984 115.02565887 35.07907135 118 37 C120.46077074 39.42020858 122.53302233 41.94151728 123.9375 45.125 C125.58637681 48.0347826 128.19658293 49.29357222 131 51 C129.6332069 56.63802153 125.60476826 59.8426589 121 63 C108.45672549 69.30953234 94.92330619 68.99681515 81.67578125 64.99609375 C69.78778532 60.65102407 59.49450038 54.53738067 49.46777344 46.92749023 C44.30423558 43.06963593 39.03149899 40.29913575 33 38 C32.12730469 37.64164063 31.25460938 37.28328125 30.35546875 36.9140625 C27.90552412 35.96333772 25.58251857 35.46352897 23 35 C22.07525879 34.74875366 22.07525879 34.74875366 21.13183594 34.49243164 C18.87155215 33.9703299 16.76919696 33.79313769 14.453125 33.68359375 C13.18662109 33.62075195 13.18662109 33.62075195 11.89453125 33.55664062 C11.02183594 33.51732422 10.14914063 33.47800781 9.25 33.4375 C8.36183594 33.39431641 7.47367187 33.35113281 6.55859375 33.30664062 C4.37254037 33.20086385 2.18637911 33.09877454 0 33 C0.33 31.35 0.66 29.7 1 28 C2.258125 27.79375 3.51625 27.5875 4.8125 27.375 C10.80429237 26.07741439 15.77285499 23.10697591 21 20 C20.01 20.433125 19.02 20.86625 18 21.3125 C15.32600296 22.452325 12.64465492 23.56613208 9.9375 24.625 C9.32777344 24.86476563 8.71804687 25.10453125 8.08984375 25.3515625 C5.46143265 26.16710688 2.7145836 26.5475694 0 27 C0 18.09 0 9.18 0 0 Z M51.85546875 18.9140625 C43.76536481 21.12132692 38.84119271 20.6802169 31 18 C28.66246685 17.54717944 26.36798159 17.26310907 24 17 C23.67 17.66 23.34 18.32 23 19 C24.175625 19.28875 25.35125 19.5775 26.5625 19.875 C29.29113874 20.55474923 31.98372665 21.28344666 34.6875 22.0625 C40.00864933 23.56848566 43.28003142 24.21083227 48.6875 22.6875 C50.25757813 22.26791016 50.25757813 22.26791016 51.859375 21.83984375 C52.89578125 21.56269531 53.9321875 21.28554687 55 21 C56.80771776 20.56305165 58.62004801 20.1445068 60.4375 19.75 C61.19933594 19.57984375 61.96117187 19.4096875 62.74609375 19.234375 C65.38111774 18.96036904 67.43699429 19.36762441 70 20 C75.35130306 21.3080963 78.81283282 20.52037659 84 19 C80.57160898 16.57155636 78.05884697 17.1932783 74.06640625 17.84765625 C72 18 72 18 68.625 16.9375 C62.73717215 15.4147859 57.5969669 17.24510527 51.85546875 18.9140625 Z M84 19 C87.67101936 23.1159914 90.91391832 24.96556733 96 27 C96.66 27.556875 97.32 28.11375 98 28.6875 C101.07119886 30.70297425 103.40711027 30.37167825 107 30 C110.35161246 28.61785878 110.35161246 28.61785878 113 27 C108.81606482 25.71415704 104.88644648 26.05815579 100.55859375 26.2578125 C97.47829129 25.94743088 96.9970512 25.25073068 95 23 C92.80919248 21.79319098 92.80919248 21.79319098 90.4375 20.8125 C89.65246094 20.46832031 88.86742187 20.12414062 88.05859375 19.76953125 C86.05405588 18.88328356 86.05405588 18.88328356 84 19 Z M116 29 C116.33 29.66 116.66 30.32 117 31 C117.66 30.67 118.32 30.34 119 30 C118.01 29.67 117.02 29.34 116 29 Z M39 30 C39.33 30.66 39.66 31.32 40 32 C41.81325551 31.88648483 43.62563357 31.75887039 45.4375 31.625 C46.44683594 31.55539063 47.45617187 31.48578125 48.49609375 31.4140625 C49.73552734 31.20910156 49.73552734 31.20910156 51 31 C51.33 30.34 51.66 29.68 52 29 C47.52572076 28.91051442 43.39436211 29.14256349 39 30 Z M125 37 C125.33 37.99 125.66 38.98 126 40 C126.99 39.67 127.98 39.34 129 39 C127.68 38.34 126.36 37.68 125 37 Z " fill="#A1C85F" transform="translate(60,43)"/>
<path d="M0 0 C57.42 0 114.84 0 174 0 C174 57.09 174 114.18 174 173 C116.58 173 59.16 173 0 173 C0 115.91 0 58.82 0 0 Z M8 8 C8 60.14 8 112.28 8 166 C60.47 166 112.94 166 167 166 C167 113.86 167 61.72 167 8 C114.53 8 62.06 8 8 8 Z " fill="#29398A" transform="translate(45,30)"/>
<path d="M0 0 C1.11375 0.4640625 1.11375 0.4640625 2.25 0.9375 C5.11312853 2.1204154 5.11312853 2.1204154 7.6875 1.6875 C8.9559375 1.81125 8.9559375 1.81125 10.25 1.9375 C10.8275 2.741875 11.405 3.54625 12 4.375 C14.56215495 7.29300981 15.12836498 7.33634658 18.8125 7.6875 C19.57691406 7.72359375 20.34132812 7.7596875 21.12890625 7.796875 C23.25 7.9375 23.25 7.9375 26.25 8.9375 C27.9515625 8.9065625 27.9515625 8.9065625 29.6875 8.875 C33.25 8.9375 33.25 8.9375 35.1953125 9.9296875 C37.55234953 11.08580072 39.0795269 11.17471872 41.6875 11.125 C42.87085938 11.10566406 42.87085938 11.10566406 44.078125 11.0859375 C46.35975991 10.99589449 46.35975991 10.99589449 48.9375 10.25 C52.4981592 9.76882984 54.27565887 11.01657135 57.25 12.9375 C59.71077074 15.35770858 61.78302233 17.87901728 63.1875 21.0625 C64.83637681 23.9722826 67.44658293 25.23107222 70.25 26.9375 C68.8832069 32.57552153 64.85476826 35.7801589 60.25 38.9375 C47.70672549 45.24703234 34.17330619 44.93431515 20.92578125 40.93359375 C9.03778532 36.58852407 -1.25549962 30.47488067 -11.28222656 22.86499023 C-16.44576442 19.00713593 -21.71850101 16.23663575 -27.75 13.9375 C-29.41682672 13.27123361 -31.08353791 12.60467788 -32.75 11.9375 C-32.75 11.2775 -32.75 10.6175 -32.75 9.9375 C-27.59463357 6.88876807 -24.75552192 5.58932161 -18.75 6.9375 C-14.68314181 7.07206516 -11.14470724 6.96473946 -7.79296875 4.49609375 C-6.62409985 3.3985284 -5.46346327 2.29210905 -4.3125 1.17578125 C-2.75 -0.0625 -2.75 -0.0625 0 0 Z " fill="#A1C85F" transform="translate(120.75,67.0625)"/>
<path d="M0 0 C49.17 0 98.34 0 149 0 C149 3.63 149 7.26 149 11 C99.83 11 50.66 11 0 11 C0 7.37 0 3.74 0 0 Z " fill="#29398A" transform="translate(233,131)"/>
<path d="M0 0 C0.66 0 1.32 0 2 0 C0.50829734 4.9723422 -1.60457417 9.41845739 -4 14 C-3.57589844 13.62488281 -3.15179687 13.24976562 -2.71484375 12.86328125 C1.36517338 9.30335421 5.5513476 6.08682003 10 3 C9.39889717 7.00735217 7.33397972 9.55469371 4.9375 12.75 C3.83728516 14.22726563 3.83728516 14.22726563 2.71484375 15.734375 C2.14894531 16.48203125 1.58304688 17.2296875 1 18 C1.81984375 17.50628906 2.6396875 17.01257813 3.484375 16.50390625 C4.56203125 15.86324219 5.6396875 15.22257812 6.75 14.5625 C7.81734375 13.92441406 8.8846875 13.28632812 9.984375 12.62890625 C12.43484971 11.30526901 14.28991337 10.46702949 17 10 C13.19524578 14.56030824 9.25030379 18.85089392 5 23 C6.05960938 22.566875 7.11921875 22.13375 8.2109375 21.6875 C9.59888483 21.12481865 10.9869097 20.56232855 12.375 20 C13.42300781 19.57074219 13.42300781 19.57074219 14.4921875 19.1328125 C19.7734375 17 19.7734375 17 22 17 C22 17.66 22 18.32 22 19 C19.52115887 20.63485475 17.06755015 22.14416809 14.5 23.625 C12.025 25.06875 9.55 26.5125 7 28 C13.27 26.68 19.54 25.36 26 24 C26 24.66 26 25.32 26 26 C20.72 28.31 15.44 30.62 10 33 C15.94 33 21.88 33 28 33 C27 35 27 35 25.23413086 35.59423828 C24.48526611 35.75134277 23.73640137 35.90844727 22.96484375 36.0703125 C22.23644287 36.22773926 21.50804199 36.38516602 20.75756836 36.54736328 C19.36163452 36.83329346 19.36163452 36.83329346 17.9375 37.125 C14.988125 37.74375 12.03875 38.3625 9 39 C15.27 39.66 21.54 40.32 28 41 C28 41.66 28 42.32 28 43 C21.62641289 43.96205088 15.44070471 44.10655578 9 44 C9 44.66 9 45.32 9 46 C10.093125 46.103125 11.18625 46.20625 12.3125 46.3125 C17.68965184 46.9689566 22.81178648 48.483592 28 50 C28 50.66 28 51.32 28 52 C22.72 52 17.44 52 12 52 C16.29 53.98 20.58 55.96 25 58 C21.15036221 58.96240945 20.10420776 59.00675306 16.5 58.0625 C13.40991351 57.26352216 11.28070186 57 8 57 C12.62 59.97 17.24 62.94 22 66 C20 67 20 67 16.99609375 66.0390625 C15.23458984 65.33910156 15.23458984 65.33910156 13.4375 64.625 C12.26058594 64.16351563 11.08367188 63.70203125 9.87109375 63.2265625 C7 62 7 62 6 61 C5.70368235 59.44213197 5.43794981 57.8783965 5.1875 56.3125 C3.92038942 49.81971439 1.20781425 45.40136465 -4.0625 41.27734375 C-9.5586747 37.65385761 -15.63454868 34.94739747 -21.71484375 32.4609375 C-22.33488281 32.20562256 -22.95492187 31.95030762 -23.59375 31.68725586 C-25.34726619 30.97419333 -27.10900421 30.28144886 -28.87109375 29.58984375 C-32.33656155 27.82898808 -34.49120827 25.95531062 -37 23 C-37.625 19.9375 -37.625 19.9375 -37 17 C-31.80376427 11.94050731 -28.12114351 11.78993287 -21.1328125 11.83203125 C-17.16641075 12.04469369 -13.78751452 12.83461092 -10 14 C-9.7525 13.44828125 -9.505 12.8965625 -9.25 12.328125 C-7.75765526 9.54863293 -5.96327477 7.2185293 -4 4.75 C-2.948125 3.41195312 -2.948125 3.41195312 -1.875 2.046875 C-1.25625 1.37140625 -0.6375 0.6959375 0 0 Z " fill="#FBC116" transform="translate(793,71)"/>
<path d="M0 0 C5.24647524 0.27939809 9.33675153 2.38030455 13.875 4.8125 C14.98548706 5.4010376 14.98548706 5.4010376 16.1184082 6.00146484 C21.50589091 8.95402729 26.35061774 12.34922211 31.1875 16.125 C43.63784187 25.81282714 58.97228637 34.11773698 75.2265625 33.37890625 C86.13652872 31.88838974 98.43269948 27.39321927 105.9375 19 C108 17 108 17 110.6875 17 C113 18 113 18 115 21 C98.72886686 32.44758684 83.23466295 40.45871683 62.875 37.1875 C55.89064569 35.63457957 49.88374238 32.68076948 43.5 29.5 C27.61881182 21.6431661 14.18131421 18.88329336 -3.02734375 24.59765625 C-8.96249802 26.69201853 -14.80206911 28.89602788 -20.4296875 31.72265625 C-23 33 -23 33 -25 33 C-25.14496508 29.22956968 -25.23395607 25.45985258 -25.3125 21.6875 C-25.3753418 20.0797168 -25.3753418 20.0797168 -25.43945312 18.43945312 C-25.45556641 17.41142578 -25.47167969 16.38339844 -25.48828125 15.32421875 C-25.51446533 14.37635498 -25.54064941 13.42849121 -25.56762695 12.4519043 C-25 10 -25 10 -22.55981445 8.27294922 C-21.2927063 7.64283936 -21.2927063 7.64283936 -20 7 C-19.52304688 6.44183594 -19.04609375 5.88367188 -18.5546875 5.30859375 C-16.16774886 3.29948711 -14.16366977 3.85411242 -11.125 4.0625 C-5.84071409 4.22763393 -3.95248517 3.60373648 0 0 Z " fill="#A1C85F" transform="translate(85,81)"/>
<path d="M0 0 C1.73030291 0.28484846 3.45920714 0.57819938 5.1875 0.875 C6.15042969 1.03742188 7.11335937 1.19984375 8.10546875 1.3671875 C10.98289819 1.99626114 13.39511423 2.61827798 16 4 C17.046875 5.91796875 17.046875 5.91796875 17.75 8.1875 C20.64561889 15.27324975 25.74670234 18.51928684 32.5703125 21.625 C37.33026809 23.59166278 42.16738465 25.33921262 47.01171875 27.0859375 C51.98794168 28.94551259 55.80119547 30.52167365 59 35 C59.625 38 59.625 38 59 41 C56.827365 43.57285724 55.02006162 45.48996919 52 47 C49.87681936 47.0972886 47.75040309 47.12977619 45.625 47.125 C44.48289062 47.12757813 43.34078125 47.13015625 42.1640625 47.1328125 C39.56763848 47.0238268 37.46375117 46.76461243 35 46 C34.75507812 46.55171875 34.51015625 47.1034375 34.2578125 47.671875 C32.74261886 50.47639491 30.88915874 52.78103123 28.875 55.25 C28.15054688 56.14203125 27.42609375 57.0340625 26.6796875 57.953125 C26.12539063 58.62859375 25.57109375 59.3040625 25 60 C24.34 59.67 23.68 59.34 23 59 C25.31 54.05 27.62 49.1 30 44 C26.13577995 47.6147039 26.13577995 47.6147039 22.28173828 51.24023438 C18.22222222 55 18.22222222 55 16 55 C17.40398279 50.89889238 19.37087038 48.01910841 22.125 44.6875 C22.84945312 43.80449219 23.57390625 42.92148438 24.3203125 42.01171875 C24.87460937 41.34785156 25.42890625 40.68398437 26 40 C25.03578125 40.56589844 24.0715625 41.13179687 23.078125 41.71484375 C21.80223301 42.45598689 20.52618301 43.19685807 19.25 43.9375 C18.61578125 44.31068359 17.9815625 44.68386719 17.328125 45.06835938 C14.23708368 46.85536764 11.48532332 48.24885273 8 49 C11.9419417 44.11950075 16.11950075 39.9419417 21 36 C19.95199219 36.44472656 18.90398438 36.88945312 17.82421875 37.34765625 C16.44551937 37.9197696 15.06660161 38.49135691 13.6875 39.0625 C12.99720703 39.35705078 12.30691406 39.65160156 11.59570312 39.95507812 C6.33984375 42.11328125 6.33984375 42.11328125 3 41 C7.95 37.7 12.9 34.4 18 31 C15.958125 31.495 13.91625 31.99 11.8125 32.5 C7.77018623 33.47995485 4.16470277 34.18823515 0 34 C4.75406402 30.06520429 10.31731335 28.28542833 16 26 C6.595 26.495 6.595 26.495 -3 27 C-2.67 26.34 -2.34 25.68 -2 25 C0.52369457 24.20058692 2.99718906 23.5063892 5.5625 22.875 C6.27341797 22.69324219 6.98433594 22.51148437 7.71679688 22.32421875 C9.47602969 21.87555535 11.23779417 21.43684043 13 21 C10.0384304 19.5192152 7.16493705 19.64685963 3.875 19.4375 C2.59367188 19.35371094 1.31234375 19.26992187 -0.0078125 19.18359375 C-1.48894531 19.09271484 -1.48894531 19.09271484 -3 19 C-3 18.34 -3 17.68 -3 17 C-1.41058594 16.80083984 -1.41058594 16.80083984 0.2109375 16.59765625 C1.59898279 16.41946125 2.98700231 16.2410654 4.375 16.0625 C5.07367187 15.97548828 5.77234375 15.88847656 6.4921875 15.79882812 C10.36783575 15.33681872 10.36783575 15.33681872 14 14 C8.72 12.68 3.44 11.36 -2 10 C-2 9.67 -2 9.34 -2 9 C5.92 8.505 5.92 8.505 14 8 C9.38 6.02 4.76 4.04 0 2 C0 1.34 0 0.68 0 0 Z " fill="#FBC116" transform="translate(716,96)"/>
<path d="M0 0 C2 2.75 2 2.75 3 5 C1.92892883 5.86949317 0.84254056 6.72014205 -0.25 7.5625 C-0.85328125 8.03816406 -1.4565625 8.51382813 -2.078125 9.00390625 C-4 10 -4 10 -6.05859375 9.75390625 C-8 9 -8 9 -10.8125 7.375 C-14.68207649 5.70577093 -16.94502507 6.10790552 -21 7 C-21 8.32 -21 9.64 -21 11 C-19.91460938 11.17015625 -18.82921875 11.3403125 -17.7109375 11.515625 C-16.26549711 11.75966039 -14.82019144 12.00449462 -13.375 12.25 C-12.30572266 12.41435547 -12.30572266 12.41435547 -11.21484375 12.58203125 C-6.32299525 13.43473879 -2.96217234 14.8350215 1 18 C3.69498416 22.04247625 3.66560133 25.2515027 3 30 C0.34641502 35.11762818 -2.53117826 38.17705942 -8 40 C-17.25987657 40.73574502 -26.37918334 41.21439985 -34 35 C-35.2578125 32.828125 -35.2578125 32.828125 -36 31 C-34.92892883 30.13050683 -33.84254056 29.27985795 -32.75 28.4375 C-32.14671875 27.96183594 -31.5434375 27.48617187 -30.921875 26.99609375 C-29 26 -29 26 -26.94140625 26.25 C-25 27 -25 27 -22.1875 28.5625 C-18.4873772 30.23118283 -16.01836983 30.37909149 -12 30 C-11.01 29.34 -10.02 28.68 -9 28 C-9 27.01 -9 26.02 -9 25 C-10.27875 24.731875 -11.5575 24.46375 -12.875 24.1875 C-28.55322104 20.6456586 -28.55322104 20.6456586 -32 16 C-33.73836852 12.52326295 -33.45436319 8.80129202 -33 5 C-30.61283382 0.04203946 -28.09487601 -2.02443583 -23 -4 C-15.46624974 -6.51125009 -6.3393987 -4.62152807 0 0 Z " fill="#A71843" transform="translate(1153,67)"/>
<path d="M0 0 C4.11924357 1.02971056 4.11924357 1.02971056 8 0 C11.705876 -0.411764 13.39817225 -0.44751294 16.4375 1.8125 C17.7059375 2.8953125 17.7059375 2.8953125 19 4 C21.32481174 5.01965427 23.65794699 6.02059602 26 7 C26.99 7.8353125 26.99 7.8353125 28 8.6875 C31.04102857 10.683175 33.4382818 10.30704467 37 10 C37.94875 9.525625 38.8975 9.05125 39.875 8.5625 C43 8 43 8 45.234375 9.25 C49.45062766 12.44663601 52.7531328 15.82545646 56 20 C57.175625 20.6496875 57.175625 20.6496875 58.375 21.3125 C61.07461134 23.04796443 62.03844303 24.33170358 63.8125 26.9375 C66.92908833 31.35605734 70.04813027 32.95095046 75 35 C75 36.32 75 37.64 75 39 C66.59429776 36.61410199 59.73121349 30.49537528 54 24 C54 23.34 54 22.68 54 22 C53.38125 21.731875 52.7625 21.46375 52.125 21.1875 C50 20 50 20 48 17 C44.4701194 14.51600995 41.2072064 14.78607425 37 15 C35.824375 15.226875 34.64875 15.45375 33.4375 15.6875 C29.25881553 16.06738041 27.69721753 14.84860876 24 13 C21.79803968 12.85546979 19.65017496 12.9407147 17.4453125 13.01171875 C13.23569905 12.99154488 8.94271985 12.50876644 5 11 C4.53980469 10.34644531 4.07960938 9.69289063 3.60546875 9.01953125 C0.72466479 5.39574622 -3.47137093 5.5472934 -7.84375 4.9765625 C-12.61656095 5.01200417 -13.70169059 6.70169059 -17 10 C-20.58101849 10.76316787 -23.56485249 11.08427023 -27.1953125 10.87109375 C-32.87369169 10.5644217 -35.92917251 11.66835216 -40.56640625 15.00390625 C-43.51552698 16.21101024 -45.64916358 15.85210344 -48.74584961 15.34399414 C-52.80375995 14.7247376 -56.90339845 14.62942987 -61 14.4375 C-61.87011719 14.39431641 -62.74023438 14.35113281 -63.63671875 14.30664062 C-65.75768219 14.20175782 -67.87882433 14.10049925 -70 14 C-69.67 12.35 -69.34 10.7 -69 9 C-67.1746875 8.7215625 -67.1746875 8.7215625 -65.3125 8.4375 C-59.63651444 7.22506638 -55.05563743 4.41790274 -50.11328125 1.4609375 C-46.71493568 -0.1337692 -44.70415232 -0.4455344 -41 0 C-40.01 0.66 -39.02 1.32 -38 2 C-29.61911374 4.7169597 -23.24266915 3.46181052 -15 1 C-13.19369935 0.55722993 -11.38123022 0.13857144 -9.5625 -0.25 C-8.80066406 -0.42015625 -8.03882813 -0.5903125 -7.25390625 -0.765625 C-4.61873741 -1.03964602 -2.5656527 -0.62273124 0 0 Z " fill="#29398A" transform="translate(130,62)"/>
<path d="M0 0 C4.29 0 8.58 0 13 0 C15.14033196 5.80090681 17.27647133 11.60333318 19.40869141 17.40722656 C20.13507072 19.38258831 20.86260633 21.35752525 21.59130859 23.33203125 C22.63681405 26.16556439 23.67819017 29.00058506 24.71875 31.8359375 C25.04685669 32.72243988 25.37496338 33.60894226 25.7130127 34.52230835 C26.01332397 35.34300812 26.31363525 36.16370789 26.62304688 37.00927734 C26.88952026 37.73319672 27.15599365 38.45711609 27.43054199 39.20297241 C28 41 28 41 28 43 C24.04 43 20.08 43 16 43 C14 39 14 39 14 36 C9.05 36 4.1 36 -1 36 C-1.66 38.31 -2.32 40.62 -3 43 C-6.96 43 -10.92 43 -15 43 C-13.77340858 36.97314047 -12.20806634 31.40117446 -9.9609375 25.68359375 C-9.67521881 24.94166275 -9.38950012 24.19973175 -9.09512329 23.43531799 C-8.1943715 21.10035573 -7.28487033 18.76892198 -6.375 16.4375 C-5.7572267 14.84072131 -5.14003403 13.24371785 -4.5234375 11.64648438 C-3.02231365 7.76169651 -1.51334118 3.88004395 0 0 Z M6 12 C4.68 16.95 3.36 21.9 2 27 C4.97 27 7.94 27 11 27 C10.54901762 25.06077578 10.08894441 23.12366406 9.625 21.1875 C9.24214844 19.56908203 9.24214844 19.56908203 8.8515625 17.91796875 C8.11267119 14.84466657 8.11267119 14.84466657 6 12 Z " fill="#A71843" transform="translate(917,64)"/>
<path d="M0 0 C1.47906892 -0.02689216 2.95827483 -0.04634621 4.4375 -0.0625 C5.26121094 -0.07410156 6.08492187 -0.08570312 6.93359375 -0.09765625 C9 0 9 0 10 1 C10.14646214 3.10897935 10.22747892 5.22256254 10.28125 7.3359375 C10.31863281 8.62757812 10.35601563 9.91921875 10.39453125 11.25 C10.43021542 12.6249864 10.46536572 13.99998675 10.5 15.375 C10.56772174 18.04969234 10.64149966 20.72397743 10.71875 23.3984375 C10.74904297 24.59130371 10.77933594 25.78416992 10.81054688 27.01318359 C10.87562798 30.05278301 10.87562798 30.05278301 12 33 C14.77100394 34.38550197 16.9334706 34.1877467 20 34 C23.03785776 32.38971374 23.03785776 32.38971374 23.66772461 30.28222656 C24.0957115 27.34260758 24.22191779 24.45401221 24.31640625 21.484375 C24.35830078 20.23398438 24.40019531 18.98359375 24.44335938 17.6953125 C24.48267578 16.39335937 24.52199219 15.09140625 24.5625 13.75 C24.60568359 12.43257812 24.64886719 11.11515625 24.69335938 9.7578125 C24.79941917 6.50531212 24.90148024 3.25273608 25 0 C28.63 0 32.26 0 36 0 C36.09943798 4.5714698 36.17173349 9.14229975 36.21972656 13.71459961 C36.2397487 15.26744565 36.26697517 16.82021719 36.30175781 18.37280273 C36.3506961 20.61460832 36.37306168 22.85541093 36.390625 25.09765625 C36.41127014 25.78336197 36.43191528 26.46906769 36.45318604 27.17555237 C36.45567974 32.62442379 34.95598408 35.59581931 32 40 C27.22688972 44.32834318 21.08364184 44.61680462 14.90625 44.3828125 C9.20833961 43.63228129 5.52441037 41.89532879 1.91699219 37.41015625 C-0.3139603 33.44149294 -0.5186465 30.39630199 -0.390625 25.9765625 C-0.38496521 25.23038666 -0.37930542 24.48421082 -0.37347412 23.71542358 C-0.35122898 21.35127363 -0.30105984 18.98868541 -0.25 16.625 C-0.22991944 15.01434493 -0.2116714 13.40366591 -0.1953125 11.79296875 C-0.15140381 7.86138493 -0.08246318 3.93095648 0 0 Z " fill="#A71843" transform="translate(904,119)"/>
<path d="M0 0 C8 0 8 0 10.72265625 2.52734375 C11.52879118 3.64564369 12.30797266 4.783751 13.0625 5.9375 C13.90460696 7.12784545 14.74705703 8.31794823 15.58984375 9.5078125 C15.99444824 10.09852539 16.39905273 10.68923828 16.81591797 11.29785156 C18.49355173 13.70949334 20.30326653 16.0086512 22.125 18.3125 C23.07375 19.529375 24.0225 20.74625 25 22 C25.33 14.74 25.66 7.48 26 0 C28.97 0 31.94 0 35 0 C35 13.2 35 26.4 35 40 C27 40 27 40 25.17724609 38.84179688 C24.79648926 38.30619141 24.41573242 37.77058594 24.0234375 37.21875 C23.58 36.62320313 23.1365625 36.02765625 22.6796875 35.4140625 C22.24914062 34.78242187 21.81859375 34.15078125 21.375 33.5 C20.93671875 32.89929688 20.4984375 32.29859375 20.046875 31.6796875 C18.67910514 29.80000378 17.33982947 27.89970057 16 26 C14.02 23.36 12.04 20.72 10 18 C9.67 25.26 9.34 32.52 9 40 C6.03 40 3.06 40 0 40 C0 26.8 0 13.6 0 0 Z " fill="#29398A" transform="translate(277,78)"/>
<path d="M0 0 C3.50625 -0.0825 7.0125 -0.165 10.625 -0.25 C11.71893066 -0.28641602 12.81286133 -0.32283203 13.93994141 -0.36035156 C19.96448508 -0.42887508 23.45551791 -0.07970552 28 4 C30.9224897 8.38373454 31.559524 11.77777599 31 17 C29.6875 20.375 29.6875 20.375 28 23 C27.01 23.33 26.02 23.66 25 24 C26.88057826 27.94121188 28.75799565 31.77939372 31.25 35.375 C33 38 33 38 33 40 C29.45966158 40.70521832 26.50928292 40.94226029 23 40 C19.8209833 36.59750233 16 31.84787506 16 27 C13.69 27 11.38 27 9 27 C9 31.29 9 35.58 9 40 C6.03 40 3.06 40 0 40 C0 26.8 0 13.6 0 0 Z M9 8 C9 11.63 9 15.26 9 19 C10.77375 19.061875 12.5475 19.12375 14.375 19.1875 C15.37273437 19.22230469 16.37046875 19.25710937 17.3984375 19.29296875 C18.68621094 19.14794922 18.68621094 19.14794922 20 19 C22.38798682 16.09414313 22.38798682 16.09414313 21.6875 12.375 C21.35886877 9.17495688 21.35886877 9.17495688 20 8 C16.3308423 7.85689713 12.67284559 7.95778338 9 8 Z " fill="#29398A" transform="translate(415,78)"/>
<path d="M0 0 C2.58180333 1.76318276 4.66967354 3.25146908 6.5625 5.75 C6.5625 7.8125 6.5625 7.8125 5.5625 9.75 C2.24107143 12.75 2.24107143 12.75 -0.4375 12.75 C-1.13875 11.925 -1.84 11.1 -2.5625 10.25 C-5.53174825 7.668045 -5.91572 7.38840728 -9.5625 7.375 C-13.34654191 7.59558277 -13.34654191 7.59558277 -16.4375 8.75 C-18.50515311 12.64736202 -19.48139917 16.60862151 -19.3125 21 C-18.01413437 25.08057768 -16.89445706 27.88370121 -13.125 30.125 C-9.74421597 30.91122884 -7.75951297 30.78812905 -4.4375 29.75 C-1.58195983 27.31272118 -1.58195983 27.31272118 0.5625 24.75 C-2.0775 24.75 -4.7175 24.75 -7.4375 24.75 C-7.4375 22.44 -7.4375 20.13 -7.4375 17.75 C-2.4875 17.75 2.4625 17.75 7.5625 17.75 C7.5625 24.68 7.5625 31.61 7.5625 38.75 C5.2525 38.75 2.9425 38.75 0.5625 38.75 C0.2325 38.09 -0.0975 37.43 -0.4375 36.75 C-0.98792969 37.07226562 -1.53835938 37.39453125 -2.10546875 37.7265625 C-6.82683735 39.79858691 -12.70815553 39.67477789 -17.5703125 38.02734375 C-23.2436412 34.99420048 -26.42089381 30.73087476 -28.4375 24.75 C-29.10657017 18.29390734 -29.30346028 12.21566799 -25.4375 6.75 C-18.54895168 -1.25561021 -9.9986247 -3.63586353 0 0 Z " fill="#29398A" transform="translate(261.4375,32.25)"/>
<path d="M0 0 C3.94043769 1.7664031 5.42620574 3.14920162 7.8125 6.6875 C9 10 9 10 10 19 C2.74 19 -4.52 19 -12 19 C-11.67 20.65 -11.34 22.3 -11 24 C-5.28662627 24.59236584 -5.28662627 24.59236584 -0.5 22 C-0.005 21.34 0.49 20.68 1 20 C6.75 21.875 6.75 21.875 9 23 C8.43491477 26.47339053 7.37356664 27.95006976 4.6875 30.1875 C4.09324219 30.69667969 3.49898437 31.20585938 2.88671875 31.73046875 C-1.25638808 34.51827355 -6.14247709 34.50736216 -11 34 C-16.26594344 32.14143173 -18.79395768 29.39685804 -22 25 C-24.05388439 18.83834684 -23.48496817 12.68549535 -20.9921875 6.7265625 C-16.39980465 -1.26490687 -8.07911554 -0.69783115 0 0 Z M-10.3125 8.875 C-12.10364702 10.67826236 -12.10364702 10.67826236 -12 12 C-8.37 12 -4.74 12 -1 12 C-2.50512739 7.90509292 -2.50512739 7.90509292 -5.375 7 C-8.15635708 6.72446164 -8.15635708 6.72446164 -10.3125 8.875 Z " fill="#A71843" transform="translate(1251,74)"/>
<path d="M0 0 C4.87204914 2.48031592 8.16380723 5.00906483 10.3125 10.125 C11.41488372 16.3384355 11.10326966 21.61693754 8.4375 27.375 C4.2303998 31.9057233 -0.28417437 34.1779365 -6.5 34.5 C-12.71582563 34.1779365 -17.2303998 31.9057233 -21.4375 27.375 C-24.21419425 21.37734042 -24.7187286 15.59269976 -23 9.1875 C-21.49793371 5.45549389 -19.81016876 2.94167831 -16.36328125 0.80859375 C-11.13098703 -0.98162923 -5.41955924 -0.76873181 0 0 Z M-10.3125 8.875 C-12.98774214 12.24382343 -13.30383227 15.76857988 -13 20 C-11.65021698 23.16821233 -11.65021698 23.16821233 -9 25 C-5.95720628 25.66680368 -5.95720628 25.66680368 -3 25 C-0.96332385 23.45493534 -0.13926922 22.27853844 1 20 C1.30193396 16.60324297 1.14729439 14.36823599 -0.125 11.1875 C-1.88200609 8.76207785 -1.88200609 8.76207785 -4.9375 8 C-7.93469848 7.81936758 -7.93469848 7.81936758 -10.3125 8.875 Z " fill="#A71843" transform="translate(1034,74)"/>
<path d="M0 0 C3.47748727 2.79350944 6.02952829 5.29120178 7.01171875 9.765625 C7.01171875 12.075625 7.01171875 14.385625 7.01171875 16.765625 C-0.24828125 16.765625 -7.50828125 16.765625 -14.98828125 16.765625 C-13.99828125 18.745625 -13.00828125 20.725625 -11.98828125 22.765625 C-6.85102143 23.25052337 -6.85102143 23.25052337 -2.55078125 20.765625 C-2.03515625 20.105625 -1.51953125 19.445625 -0.98828125 18.765625 C4.76171875 20.640625 4.76171875 20.640625 7.01171875 21.765625 C5.38115475 27.10201626 2.52049476 29.40952986 -2.30078125 32.015625 C-7.68116292 33.51712686 -12.15269504 33.40972013 -17.23828125 31.203125 C-21.23758269 28.92793186 -23.72245609 26.2318383 -24.98828125 21.765625 C-25.92713866 13.72598399 -25.20679575 8.05697767 -20.30078125 1.515625 C-14.62135201 -2.78232145 -6.17376327 -3.83282749 0 0 Z M-12.86328125 7.078125 C-14.17318132 8.70495467 -14.17318132 8.70495467 -13.98828125 10.765625 C-10.68828125 10.765625 -7.38828125 10.765625 -3.98828125 10.765625 C-4.31828125 9.445625 -4.64828125 8.125625 -4.98828125 6.765625 C-9.12099803 5.56214382 -9.12099803 5.56214382 -12.86328125 7.078125 Z " fill="#A71843" transform="translate(1042.98828125,131.234375)"/>
<path d="M0 0 C2.1953125 1.09765625 2.1953125 1.09765625 5.4453125 3.09765625 C4.6328125 6.03515625 4.6328125 6.03515625 3.4453125 9.09765625 C0.03538731 10.23429798 -0.2846288 10.00821565 -3.3671875 8.59765625 C-7.11929241 7.06491099 -9.57411753 7.00299951 -13.5546875 8.09765625 C-13.5546875 9.41765625 -13.5546875 10.73765625 -13.5546875 12.09765625 C-12.52988281 12.40058594 -11.50507813 12.70351562 -10.44921875 13.015625 C-9.08828722 13.43798306 -7.72762397 13.86120628 -6.3671875 14.28515625 C-5.69365234 14.48173828 -5.02011719 14.67832031 -4.32617188 14.88085938 C0.35932004 16.36650315 3.34426832 18.10299056 6.4453125 22.09765625 C7.62390467 26.78274314 7.1116721 30.91301697 4.7578125 35.09765625 C-0.16781439 39.35765789 -5.11780253 39.51905801 -11.3984375 39.42578125 C-16.15184245 38.93161539 -20.40942439 37.47879271 -24.5546875 35.09765625 C-24.8846875 34.43765625 -25.2146875 33.77765625 -25.5546875 33.09765625 C-24.62022215 31.06620984 -23.62243974 29.06232038 -22.5546875 27.09765625 C-19.95593875 27.54315604 -17.74876807 28.00338855 -15.3671875 29.16015625 C-11.13782528 30.56994366 -6.97406944 30.25212008 -2.5546875 30.09765625 C-2.78926664 28.13176762 -2.78926664 28.13176762 -3.5546875 26.09765625 C-6.85873935 24.63790001 -10.12439418 23.54790776 -13.56445312 22.47460938 C-18.23486333 20.90641125 -20.93487039 19.52028565 -23.5546875 15.09765625 C-24.47682793 11.26387557 -23.87823504 7.90652511 -22.4296875 4.28515625 C-16.93186258 -2.12897282 -7.69547473 -2.7181264 0 0 Z " fill="#29398A" transform="translate(476.5546875,78.90234375)"/>
<path d="M0 0 C8.91 0 17.82 0 27 0 C27 2.64 27 5.28 27 8 C20.73 8 14.46 8 8 8 C8 10.64 8 13.28 8 16 C13.61 16 19.22 16 25 16 C25 18.31 25 20.62 25 23 C19.39 23 13.78 23 8 23 C8 25.97 8 28.94 8 32 C14.6 32 21.2 32 28 32 C28 34.64 28 37.28 28 40 C18.76 40 9.52 40 0 40 C0 26.8 0 13.6 0 0 Z " fill="#29398A" transform="translate(380,78)"/>
<path d="M0 0 C2.64 0 5.28 0 8 0 C8.01458252 0.66008057 8.02916504 1.32016113 8.04418945 2.00024414 C8.11914612 5.02155397 8.21564806 8.04181595 8.3125 11.0625 C8.33505859 12.10083984 8.35761719 13.13917969 8.38085938 14.20898438 C8.5866969 23.29798349 8.5866969 23.29798349 13 31 C18.2926271 31.5628208 18.2926271 31.5628208 22.9375 29.625 C25.08231173 26.34469971 25.18354972 24.02696541 25.31640625 20.1171875 C25.35830078 18.95058594 25.40019531 17.78398438 25.44335938 16.58203125 C25.48267578 15.35871094 25.52199219 14.13539062 25.5625 12.875 C25.60568359 11.64394531 25.64886719 10.41289063 25.69335938 9.14453125 C25.79968704 6.09647147 25.90171781 3.0483281 26 0 C28.97 0 31.94 0 35 0 C35.08777806 4.16653186 35.14065272 8.33282276 35.1875 12.5 C35.21263672 13.67304687 35.23777344 14.84609375 35.26367188 16.0546875 C35.38373906 30.30266032 35.38373906 30.30266032 30.58276367 35.54858398 C25.30718938 40.17803673 20.68641572 40.34626517 13.94921875 40.28125 C8.69013357 39.77972135 6.14281134 37.23547172 2.6875 33.5 C-0.1475889 29.2998683 -0.12126669 25.70853902 -0.09765625 20.703125 C-0.09443359 19.49785156 -0.09121094 18.29257813 -0.08789062 17.05078125 C-0.07951172 15.79652344 -0.07113281 14.54226562 -0.0625 13.25 C-0.05798828 11.98027344 -0.05347656 10.71054688 -0.04882812 9.40234375 C-0.03704556 6.26818164 -0.02059416 3.13411459 0 0 Z " fill="#29398A" transform="translate(233,78)"/>
<path d="M0 0 C2.58000697 1.90105777 3.23420432 2.81579987 4.375 5.75 C4.69384766 8.49902344 4.69384766 8.49902344 4.7890625 11.609375 C4.82773438 12.72441406 4.86640625 13.83945313 4.90625 14.98828125 C4.9371875 16.14714844 4.968125 17.30601563 5 18.5 C5.03867188 19.67433594 5.07734375 20.84867188 5.1171875 22.05859375 C5.2113982 24.95557268 5.29701602 27.85254626 5.375 30.75 C4.11042969 30.73259766 4.11042969 30.73259766 2.8203125 30.71484375 C1.72460938 30.70582031 0.62890625 30.69679688 -0.5 30.6875 C-1.59054687 30.67589844 -2.68109375 30.66429688 -3.8046875 30.65234375 C-6.57677546 30.55255697 -6.57677546 30.55255697 -8.625 31.75 C-13.54496928 32.28118252 -17.39827597 32.50105553 -21.6875 29.875 C-24.1953929 27.12440779 -24.58267187 26.19867818 -24.9375 22.4375 C-24.55868958 17.96753703 -24.02478295 16.66409967 -20.625 13.75 C-15.6524003 11.66201126 -11.02537837 10.5664451 -5.625 10.75 C-6.285 9.43 -6.945 8.11 -7.625 6.75 C-9.275 6.75 -10.925 6.75 -12.625 6.75 C-12.625 7.74 -12.625 8.73 -12.625 9.75 C-16.255 9.75 -19.885 9.75 -23.625 9.75 C-23.30531467 6.23346139 -23.00257864 4.21568032 -20.75 1.4375 C-15.19203953 -2.97617449 -6.37892901 -2.19963069 0 0 Z M-14.625 19.75 C-14.295 21.07 -13.965 22.39 -13.625 23.75 C-11.25125139 24.08425735 -11.25125139 24.08425735 -8.625 23.75 C-6.72298258 22.01961928 -6.72298258 22.01961928 -5.625 19.75 C-5.625 18.76 -5.625 17.77 -5.625 16.75 C-8.92855546 16.75 -11.64608249 18.42603666 -14.625 19.75 Z " fill="#A71843" transform="translate(1102.625,75.25)"/>
<path d="M0 0 C1.54300781 -0.03867188 1.54300781 -0.03867188 3.1171875 -0.078125 C7.48657798 0.39853578 10.0621613 2.1871613 13.125 5.25 C13.44384766 7.95556641 13.44384766 7.95556641 13.5390625 11.3515625 C13.57773438 12.56328125 13.61640625 13.775 13.65625 15.0234375 C13.6871875 16.29445313 13.718125 17.56546875 13.75 18.875 C13.78867188 20.15375 13.82734375 21.4325 13.8671875 22.75 C13.96171049 25.91652017 14.04726357 29.0830304 14.125 32.25 C12.98611328 32.23259766 12.98611328 32.23259766 11.82421875 32.21484375 C10.83035156 32.20582031 9.83648438 32.19679688 8.8125 32.1875 C7.82636719 32.17589844 6.84023437 32.16429688 5.82421875 32.15234375 C3.02536151 32.12670138 3.02536151 32.12670138 0.125 33.25 C-4.63122092 33.74174488 -8.59482008 33.8770269 -12.9375 31.75 C-15.5893222 28.32829394 -16.24775288 25.54908326 -15.875 21.25 C-14.625 17.9375 -14.625 17.9375 -11.875 15.25 C-6.90852962 13.25588689 -2.22286714 12.25 3.125 12.25 C2.795 10.93 2.465 9.61 2.125 8.25 C-0.34766765 8.59444881 -0.34766765 8.59444881 -2.875 9.25 C-3.205 9.91 -3.535 10.57 -3.875 11.25 C-7.175 11.25 -10.475 11.25 -13.875 11.25 C-13.38520408 4.76020408 -13.38520408 4.76020408 -11 2.375 C-7.24984508 0.38962387 -4.1881354 0.06266537 0 0 Z M-4.875 21.25 C-4.875 22.57 -4.875 23.89 -4.875 25.25 C-1.24479729 25.55699462 -1.24479729 25.55699462 1.9375 24 C3.49933428 22.05082707 3.49933428 22.05082707 3.125 18.25 C0.04490121 18.25 -2.18635136 19.8472268 -4.875 21.25 Z " fill="#A71843" transform="translate(1192.875,73.75)"/>
<path d="M0 0 C-1.65 1.98 -3.3 3.96 -5 6 C-7.16874252 5.49396008 -8.99967627 5.00016187 -11 4 C-12.99960012 3.960008 -15.00047242 3.95653201 -17 4 C-17.33 4.66 -17.66 5.32 -18 6 C-17.27554687 6.09796875 -16.55109375 6.1959375 -15.8046875 6.296875 C-9.87658628 7.21375466 -5.62506102 8.10521177 -1 12 C0.53214888 15.06429776 0.22938548 17.6165642 0 21 C-1.32428463 24.2371402 -2.60123486 25.69567923 -5.375 27.8125 C-12.38392118 30.1085259 -20.11657202 30.35393184 -26.8125 27 C-27.864375 26.34 -28.91625 25.68 -30 25 C-30 21 -30 21 -28 18.75 C-27.34 18.1725 -26.68 17.595 -26 17 C-21.25 18.875 -21.25 18.875 -19 20 C-17.62657169 20.0689472 -16.24997898 20.08467708 -14.875 20.0625 C-12.956875 20.0315625 -12.956875 20.0315625 -11 20 C-13.49035076 16.97119502 -15.73087309 16.35109317 -19.5 15.5 C-25.72727273 14.09384164 -25.72727273 14.09384164 -28 11 C-29.52544248 4.24446903 -29.52544248 4.24446903 -27.8125 0.1875 C-25.39866175 -2.72575306 -23.41680732 -4.51423749 -19.8125 -5.75 C-11.81399537 -6.46097819 -6.44465484 -4.75885957 0 0 Z " fill="#A71843" transform="translate(1102,135)"/>
<path d="M0 0 C3.3 0.33 6.6 0.66 10 1 C12.35420814 6.51703559 13.59252287 12.17816278 15 18 C16.32 12.39 17.64 6.78 19 1 C22.63 1 26.26 1 30 1 C28.5481932 8.50510294 26.24229525 15.63829261 23.74145508 22.84936523 C23.05885345 24.82304367 22.38945709 26.80088955 21.72070312 28.77929688 C21.28464258 30.04714644 20.84782063 31.31473444 20.41015625 32.58203125 C20.01965088 33.71874268 19.62914551 34.8554541 19.22680664 36.02661133 C18.07968571 38.8068672 17.06924592 40.82647455 15 43 C11.86328125 43.390625 11.86328125 43.390625 8.3125 43.25 C6.54326172 43.19585937 6.54326172 43.19585937 4.73828125 43.140625 C3.83464844 43.09421875 2.93101563 43.0478125 2 43 C2 40.36 2 37.72 2 35 C4.97 34.505 4.97 34.505 8 34 C6.7369151 26.2951821 4.52251741 19.07226975 2.03271484 11.69018555 C1.77184082 10.899104 1.5109668 10.10802246 1.2421875 9.29296875 C1.0035498 8.5868042 0.76491211 7.88063965 0.51904297 7.15307617 C0 5 0 5 0 0 Z " fill="#A71843" transform="translate(1138,130)"/>
<path d="M0 0 C3.24453153 3.03520692 3.92820601 6.31955735 4.11352539 10.65722656 C4.10828857 11.64174805 4.10305176 12.62626953 4.09765625 13.640625 C4.09443359 14.71054688 4.09121094 15.78046875 4.08789062 16.8828125 C4.07951172 17.99398437 4.07113281 19.10515625 4.0625 20.25 C4.05798828 21.37664062 4.05347656 22.50328125 4.04882812 23.6640625 C4.03705411 26.44273106 4.019119 29.22137227 4 32 C0.37 32 -3.26 32 -7 32 C-7.495 20.615 -7.495 20.615 -8 9 C-9.32 8.67 -10.64 8.34 -12 8 C-14.52128356 10.52128356 -14.29353069 11.51239013 -14.4140625 15.0078125 C-14.47207031 16.48701172 -14.47207031 16.48701172 -14.53125 17.99609375 C-14.57765625 19.54490234 -14.57765625 19.54490234 -14.625 21.125 C-14.68300781 22.68541016 -14.68300781 22.68541016 -14.7421875 24.27734375 C-14.83664329 26.85126402 -14.91941771 29.42560805 -15 32 C-18.3 32 -21.6 32 -25 32 C-25 21.44 -25 10.88 -25 0 C-21 0 -17 0 -13 0 C-12.29875 -0.185625 -11.5975 -0.37125 -10.875 -0.5625 C-6.89099974 -1.16876091 -3.96861973 -0.83212994 0 0 Z " fill="#A71843" transform="translate(969,130)"/>
<path d="M0 0 C4.66666667 0 9.33333333 0 14 0 C14.804375 -0.04640625 15.60875 -0.0928125 16.4375 -0.140625 C23.38211382 -0.43704144 23.38211382 -0.43704144 26.5625 1.8125 C28.9932628 5.51148687 29.11958037 8.44266633 29.09765625 12.76171875 C29.09443359 13.87998047 29.09121094 14.99824219 29.08789062 16.15039062 C29.07951172 17.31763672 29.07113281 18.48488281 29.0625 19.6875 C29.05798828 20.86634766 29.05347656 22.04519531 29.04882812 23.25976562 C29.03703285 26.17319867 29.01909727 29.08660567 29 32 C25.37 32 21.74 32 18 32 C17.67 24.74 17.34 17.48 17 10 C15.35 9.67 13.7 9.34 12 9 C10.79729036 11.40541929 10.79683337 13.10366591 10.68359375 15.7890625 C10.62075195 17.20058594 10.62075195 17.20058594 10.55664062 18.640625 C10.49766602 20.11789063 10.49766602 20.11789063 10.4375 21.625 C10.39431641 22.61757812 10.35113281 23.61015625 10.30664062 24.6328125 C10.20039053 27.08837033 10.09967545 29.54416651 10 32 C6.7 32 3.4 32 0 32 C0 21.44 0 10.88 0 0 Z " fill="#A71843" transform="translate(1047,74)"/>
<path d="M0 0 C2.97 0 5.94 0 9 0 C12.71558034 9.45270743 16.38561726 18.92191681 19.9375 28.4375 C20.24373291 29.24743408 20.54996582 30.05736816 20.86547852 30.8918457 C21.14576904 31.64812256 21.42605957 32.40439941 21.71484375 33.18359375 C21.96355225 33.84931396 22.21226074 34.51503418 22.46850586 35.20092773 C23 37 23 37 23 40 C20.03 40 17.06 40 14 40 C12.515 35.545 12.515 35.545 11 31 C6.71 30.67 2.42 30.34 -2 30 C-2.99 33.3 -3.98 36.6 -5 40 C-7.97 40 -10.94 40 -14 40 C-13.26650972 35.38099365 -11.70180772 31.20940638 -10.05859375 26.85546875 C-9.77146011 26.08568192 -9.48432648 25.31589508 -9.18849182 24.52278137 C-8.27503682 22.07634584 -7.35634952 19.63191386 -6.4375 17.1875 C-5.81540834 15.52421823 -5.19365971 13.86080813 -4.57226562 12.19726562 C-3.05214634 8.13001313 -1.52733299 4.06454881 0 0 Z M4 11 C2.68 15.29 1.36 19.58 0 24 C2.97 24 5.94 24 9 24 C8.55005243 22.20620902 8.08975857 20.41501072 7.625 18.625 C7.36976563 17.62726562 7.11453125 16.62953125 6.8515625 15.6015625 C6.17595681 12.87458985 6.17595681 12.87458985 4 11 Z " fill="#29398A" transform="translate(362,31)"/>
<path d="M0 0 C2.97 0 5.94 0 9 0 C12.68647029 8.64211837 16.06913762 17.3703593 19.3125 26.1875 C19.76689453 27.41275391 20.22128906 28.63800781 20.68945312 29.90039062 C24 38.86624765 24 38.86624765 24 40 C21.03 40 18.06 40 15 40 C13.68 37.03 12.36 34.06 11 31 C6.71 30.67 2.42 30.34 -2 30 C-2.99 33.3 -3.98 36.6 -5 40 C-7.97 40 -10.94 40 -14 40 C-11.52430444 31.29704291 -8.45624393 22.85171896 -5.3125 14.375 C-4.79594774 12.97536233 -4.27966971 11.57562342 -3.76367188 10.17578125 C-2.51226966 6.78268275 -1.25717674 3.39096389 0 0 Z M4 11 C2.68 15.29 1.36 19.58 0 24 C2.97 24 5.94 24 9 24 C8.55005243 22.20620902 8.08975857 20.41501072 7.625 18.625 C7.36976563 17.62726562 7.11453125 16.62953125 6.8515625 15.6015625 C6.17595681 12.87458985 6.17595681 12.87458985 4 11 Z " fill="#29398A" transform="translate(436,31)"/>
<path d="M0 0 C2.97 0 5.94 0 9 0 C10.51183707 3.98348545 12.02346612 7.96704975 13.53491211 11.95068359 C14.04787738 13.3025927 14.56089703 14.65448117 15.07397461 16.00634766 C15.32219971 16.66038574 15.5704248 17.31442383 15.82617188 17.98828125 C16.07140594 18.63434326 16.31664001 19.28040527 16.56930542 19.94604492 C17.05463491 21.22589416 17.53928117 22.5060027 18.02322388 23.78637695 C19.011773 26.40153048 20.00544503 29.0139044 21.02490234 31.6171875 C22.17676856 34.57506617 23 36.79331064 23 40 C20.03 40 17.06 40 14 40 C12.515 35.05 12.515 35.05 11 30 C4.565 30.495 4.565 30.495 -2 31 C-2.99 33.97 -3.98 36.94 -5 40 C-7.97 40 -10.94 40 -14 40 C-13.36424474 34.97581521 -11.89113714 30.65470895 -10.05859375 25.9765625 C-9.77146011 25.23038666 -9.48432648 24.48421082 -9.18849182 23.71542358 C-8.27680874 21.34985577 -7.35729089 18.9874255 -6.4375 16.625 C-5.81523393 15.01452424 -5.19348364 13.40384908 -4.57226562 11.79296875 C-3.05413629 7.85964658 -1.52897647 3.92911764 0 0 Z M4 11 C3.32942113 12.7902061 2.6636531 14.58221489 2 16.375 C1.62875 17.37273438 1.2575 18.37046875 0.875 19.3984375 C-0.10626277 21.85848061 -0.10626277 21.85848061 0 24 C2.97 24 5.94 24 9 24 C7.68 19.71 6.36 15.42 5 11 C4.67 11 4.34 11 4 11 Z " fill="#29398A" transform="translate(288,31)"/>
<path d="M0 0 C9.24 0 18.48 0 28 0 C28 8 28 8 26.93017578 10.06982422 C26.19516846 10.80483154 26.19516846 10.80483154 25.4453125 11.5546875 C24.91292969 12.10640625 24.38054688 12.658125 23.83203125 13.2265625 C23.26871094 13.77054688 22.70539062 14.31453125 22.125 14.875 C21.56941406 15.4421875 21.01382813 16.009375 20.44140625 16.59375 C18.97916892 18.08065157 17.49104979 19.54199286 16 21 C15.34 21.66 14.68 22.32 14 23 C20.93 23.495 20.93 23.495 28 24 C28 26.64 28 29.28 28 32 C18.1 32 8.2 32 -2 32 C-2 24 -2 24 -0.62304688 21.71484375 C0.00537109 21.12832031 0.63378906 20.54179688 1.28125 19.9375 C1.95800781 19.28652344 2.63476562 18.63554688 3.33203125 17.96484375 C4.40517578 16.99224609 4.40517578 16.99224609 5.5 16 C6.21542969 15.32066406 6.93085937 14.64132813 7.66796875 13.94140625 C9.42772986 12.27549907 11.21159219 10.63511571 13 9 C8.71 8.67 4.42 8.34 0 8 C0 5.36 0 2.72 0 0 Z " fill="#A71843" transform="translate(982,74)"/>
<path d="M0 0 C2.97 0 5.94 0 9 0 C9.48210937 1.31355469 9.96421875 2.62710938 10.4609375 3.98046875 C11.09892113 5.71615951 11.73694403 7.45183583 12.375 9.1875 C12.69210937 10.05181641 13.00921875 10.91613281 13.3359375 11.80664062 C13.6453125 12.64775391 13.9546875 13.48886719 14.2734375 14.35546875 C14.57217773 15.16806152 14.87091797 15.9806543 15.17871094 16.81787109 C15.82486603 18.53467674 16.51734597 20.23405138 17.2265625 21.92578125 C18 24 18 24 18 27 C18.66 27 19.32 27 20 27 C20.309375 25.2984375 20.309375 25.2984375 20.625 23.5625 C21.72263452 18.5710671 23.3636024 13.81153148 25.0625 9 C25.3320752 8.23373291 25.60165039 7.46746582 25.87939453 6.67797852 C27.86724688 1.13275312 27.86724688 1.13275312 29 0 C32.00003445 -0.14177857 34.99757235 -0.04228771 38 0 C35.82455392 7.8665891 33.04139544 15.4738597 30.12890625 23.08959961 C29.3650417 25.08855993 28.60798269 27.09000922 27.8515625 29.09179688 C27.36758291 30.36473374 26.88322243 31.63752587 26.3984375 32.91015625 C25.74367432 34.62924194 25.74367432 34.62924194 25.07568359 36.38305664 C24 39 24 39 23 40 C20.32941149 40.14115161 17.67567762 40.04247107 15 40 C11.77739844 32.9256223 8.84562745 25.756255 5.99853516 18.52294922 C5.2423853 16.60569255 4.47867444 14.69155124 3.71484375 12.77734375 C3.23660156 11.56433594 2.75835937 10.35132812 2.265625 9.1015625 C1.83024414 8.00150879 1.39486328 6.90145508 0.94628906 5.76806641 C0 3 0 3 0 0 Z " fill="#29398A" transform="translate(336,78)"/>
<path d="M0 0 C1.32 0 2.64 0 4 0 C4 51.81 4 103.62 4 157 C2.68 157 1.36 157 0 157 C0 105.19 0 53.38 0 0 Z " fill="#77787B" transform="translate(614,40)"/>
<path d="M0 0 C3.96 0 7.92 0 12 0 C13.32 5.28 14.64 10.56 16 16 C17.26291743 12.2112477 18.48821967 8.44871565 19.625 4.625 C20.07875 3.09875 20.5325 1.5725 21 0 C24.3 0 27.6 0 31 0 C30.37752765 6.78883911 28.19104077 12.94743636 26 19.375 C25.63132812 20.47972656 25.26265625 21.58445313 24.8828125 22.72265625 C22.14050904 30.85949096 22.14050904 30.85949096 21 32 C19.14712498 32.07226502 17.29166122 32.0838122 15.4375 32.0625 C14.42558594 32.05347656 13.41367187 32.04445312 12.37109375 32.03515625 C11.19740234 32.01775391 11.19740234 32.01775391 10 32 C8.5720217 27.7654367 7.14795896 23.52958336 5.72753906 19.29248047 C5.24359309 17.85071123 4.75857161 16.40930254 4.27246094 14.96826172 C3.57465288 12.89904721 2.88070002 10.82857457 2.1875 8.7578125 C1.76855469 7.5114502 1.34960938 6.26508789 0.91796875 4.98095703 C0 2 0 2 0 0 Z " fill="#A71843" transform="translate(988,130)"/>
<path d="M0 0 C2.97 0 5.94 0 9 0 C11.97 5.28 14.94 10.56 18 16 C20.97 10.72 23.94 5.44 27 0 C29.97 0 32.94 0 36 0 C35.10142607 3.59429573 34.18787175 5.61177493 32.3125 8.7109375 C23.54834792 23.3342992 23.54834792 23.3342992 22 40 C19.36 40 16.72 40 14 40 C14.07863281 39.25621094 14.15726563 38.51242188 14.23828125 37.74609375 C14.52365757 25.02431801 7.73239123 15.68755547 1.17749023 5.22973633 C0 3 0 3 0 0 Z " fill="#29398A" transform="translate(542,78)"/>
<path d="M0 0 C11.22 0 22.44 0 34 0 C34 2.64 34 5.28 34 8 C30.04 8 26.08 8 22 8 C22 18.56 22 29.12 22 40 C19.03 40 16.06 40 13 40 C13 29.44 13 18.88 13 8 C8.71 8 4.42 8 0 8 C0 5.36 0 2.72 0 0 Z " fill="#29398A" transform="translate(505,78)"/>
<path d="M0 0 C3.63 0 7.26 0 11 0 C11 2.97 11 5.94 11 9 C12.98 9 14.96 9 17 9 C17 11.31 17 13.62 17 16 C15.02 16 13.04 16 11 16 C11 21.28 11 26.56 11 32 C12.65 32 14.3 32 16 32 C16 34.97 16 37.94 16 41 C6.06025316 41.44506329 6.06025316 41.44506329 2 38 C0.25264322 35.12262981 -0.24312625 33.01883738 -0.1953125 29.671875 C-0.18886719 28.87265625 -0.18242188 28.0734375 -0.17578125 27.25 C-0.15902344 26.425 -0.14226562 25.6 -0.125 24.75 C-0.11597656 23.90953125 -0.10695313 23.0690625 -0.09765625 22.203125 C-0.07415817 20.13529396 -0.03828908 18.06761005 0 16 C-1.32 16 -2.64 16 -4 16 C-4 13.69 -4 11.38 -4 9 C-2.68 9 -1.36 9 0 9 C0 6.03 0 3.06 0 0 Z " fill="#A71843" transform="translate(1120,122)"/>
<path d="M0 0 C3.63 0 7.26 0 11 0 C11 2.97 11 5.94 11 9 C12.98 9 14.96 9 17 9 C17 11.31 17 13.62 17 16 C15.02 16 13.04 16 11 16 C11 21.28 11 26.56 11 32 C12.65 32 14.3 32 16 32 C16 34.97 16 37.94 16 41 C5.80227596 41.45661451 5.80227596 41.45661451 2 38 C-0.11062715 33.11687655 -0.2474169 28.83242657 -0.125 23.625 C-0.11597656 22.88894531 -0.10695313 22.15289062 -0.09765625 21.39453125 C-0.07430144 19.5962112 -0.03843836 17.79806089 0 16 C-1.32 16 -2.64 16 -4 16 C-4 13.69 -4 11.38 -4 9 C-2.68 9 -1.36 9 0 9 C0 6.03 0 3.06 0 0 Z " fill="#A71843" transform="translate(1211,66)"/>
<path d="M0 0 C3.3 0 6.6 0 10 0 C10 2.97 10 5.94 10 9 C11.98 9 13.96 9 16 9 C16 11.31 16 13.62 16 16 C14.02 16 12.04 16 10 16 C10 21.28 10 26.56 10 32 C11.65 32 13.3 32 15 32 C15 34.97 15 37.94 15 41 C5.3907397 41.43026539 5.3907397 41.43026539 1 38 C0 37 0 37 -0.11352539 34.95874023 C-0.10828857 34.08419189 -0.10305176 33.20964355 -0.09765625 32.30859375 C-0.09443359 31.36435547 -0.09121094 30.42011719 -0.08789062 29.44726562 C-0.07951172 28.45404297 -0.07113281 27.46082031 -0.0625 26.4375 C-0.05798828 25.44041016 -0.05347656 24.44332031 -0.04882812 23.41601562 C-0.03700007 20.94395151 -0.02051849 18.47200482 0 16 C-1.65 16 -3.3 16 -5 16 C-5 13.69 -5 11.38 -5 9 C-3.35 9 -1.7 9 0 9 C0 6.03 0 3.06 0 0 Z " fill="#A71843" transform="translate(1161,66)"/>
<path d="M0 0 C2.97 0 5.94 0 9 0 C9 10.89 9 21.78 9 33 C15.6 33 22.2 33 29 33 C29 35.31 29 37.62 29 40 C19.43 40 9.86 40 0 40 C0 26.8 0 13.6 0 0 Z " fill="#29398A" transform="translate(391,31)"/>
<path d="M0 0 C2.97 0 5.94 0 9 0 C9 10.89 9 21.78 9 33 C15.6 33 22.2 33 29 33 C29 35.31 29 37.62 29 40 C19.43 40 9.86 40 0 40 C0 26.8 0 13.6 0 0 Z " fill="#29398A" transform="translate(317,31)"/>
<path d="M0 0 C3.3 0 6.6 0 10 0 C10 0.66 10 1.32 10 2 C10.7425 1.67 11.485 1.34 12.25 1 C15 0 15 0 19 0 C19 2.97 19 5.94 19 9 C16.69 9.66 14.38 10.32 12 11 C11.67 17.93 11.34 24.86 11 32 C7.37 32 3.74 32 0 32 C0 21.44 0 10.88 0 0 Z " fill="#A71843" transform="translate(1053,130)"/>
<path d="M0 0 C1.33804688 0.17982422 1.33804688 0.17982422 2.703125 0.36328125 C3.37859375 0.47027344 4.0540625 0.57726562 4.75 0.6875 C4.75 1.3475 4.75 2.0075 4.75 2.6875 C5.41 2.6875 6.07 2.6875 6.75 2.6875 C6.75 2.0275 6.75 1.3675 6.75 0.6875 C7.471875 0.873125 8.19375 1.05875 8.9375 1.25 C12.74986886 1.84303516 15.68680813 0.96595501 19.375 0 C21.75 -0.3125 21.75 -0.3125 24.75 1.6875 C27.09680297 1.06992027 29.43152126 0.4041207 31.75 -0.3125 C32.41 0.0175 33.07 0.3475 33.75 0.6875 C34.9565625 0.4090625 34.9565625 0.4090625 36.1875 0.125 C38.75 -0.3125 38.75 -0.3125 41.75 1.6875 C42.22114738 4.4302508 41.92805784 6.88308897 41.75 9.6875 C40.75 10.6875 40.75 10.6875 37.8125 10.875 C34.75 10.6875 34.75 10.6875 32.75 8.6875 C32.625 6.0625 32.625 6.0625 32.75 3.6875 C31.76 3.6875 30.77 3.6875 29.75 3.6875 C29.75 5.9975 29.75 8.3075 29.75 10.6875 C28.945625 10.501875 28.14125 10.31625 27.3125 10.125 C26.466875 9.980625 25.62125 9.83625 24.75 9.6875 C24.42 10.0175 24.09 10.3475 23.75 10.6875 C20.875 11 20.875 11 17.75 10.6875 C15.875 8.6875 15.875 8.6875 14.75 6.6875 C14.09 8.0075 13.43 9.3275 12.75 10.6875 C11.76 10.6875 10.77 10.6875 9.75 10.6875 C9.42 10.0275 9.09 9.3675 8.75 8.6875 C8.42 9.3475 8.09 10.0075 7.75 10.6875 C6.43 10.6875 5.11 10.6875 3.75 10.6875 C3.09 9.6975 2.43 8.7075 1.75 7.6875 C1.37875 8.1825 1.0075 8.6775 0.625 9.1875 C-1.25 10.6875 -1.25 10.6875 -4.3125 11.0625 C-5.281875 10.93875 -6.25125 10.815 -7.25 10.6875 C-9.39762184 7.46606724 -9.811068 6.4279533 -9.25 2.6875 C-6.16302779 -0.36390802 -4.21651411 -0.61028494 0 0 Z M0.75 1.6875 C1.75 3.6875 1.75 3.6875 1.75 3.6875 Z M-5.25 3.6875 C-5.25 5.0075 -5.25 6.3275 -5.25 7.6875 C-4.26 7.3575 -3.27 7.0275 -2.25 6.6875 C-2.25 5.6975 -2.25 4.7075 -2.25 3.6875 C-3.24 3.6875 -4.23 3.6875 -5.25 3.6875 Z " fill="#77787B" transform="translate(253.25,155.3125)"/>
<path d="M0 0 C0.33 2.97 0.66 5.94 1 9 C-1.64 9.99 -4.28 10.98 -7 12 C-7.33 18.93 -7.66 25.86 -8 33 C-11.3 33 -14.6 33 -18 33 C-18 22.44 -18 11.88 -18 1 C-14 1 -10 1 -6 1 C-0.75 0 -0.75 0 0 0 Z " fill="#A71843" transform="translate(965,74)"/>
<path d="M0 0 C3.63 0 7.26 0 11 0 C11 10.56 11 21.12 11 32 C7.37 32 3.74 32 0 32 C0 21.44 0 10.88 0 0 Z " fill="#A71843" transform="translate(1103,130)"/>
<path d="M0 0 C3.63 0 7.26 0 11 0 C11 10.56 11 21.12 11 32 C7.37 32 3.74 32 0 32 C0 21.44 0 10.88 0 0 Z " fill="#A71843" transform="translate(967,74)"/>
<path d="M0 0 C3.3 0 6.6 0 10 0 C10 10.56 10 21.12 10 32 C6.7 32 3.4 32 0 32 C0 21.44 0 10.88 0 0 Z " fill="#A71843" transform="translate(977,130)"/>
<path d="M0 0 C2.64 0 5.28 0 8 0 C8 13.2 8 26.4 8 40 C5.36 40 2.72 40 0 40 C0 26.8 0 13.6 0 0 Z " fill="#29398A" transform="translate(491,78)"/>
<path d="M0 0 C2.64 0 5.28 0 8 0 C8 13.2 8 26.4 8 40 C5.36 40 2.72 40 0 40 C0 26.8 0 13.6 0 0 Z " fill="#29398A" transform="translate(322,78)"/>
<path d="M0 0 C0.99 0 1.98 0 3 0 C3 1.65 3 3.3 3 5 C5.64 5 8.28 5 11 5 C11.66 6.98 12.32 8.96 13 11 C13.99 9.02 14.98 7.04 16 5 C17.65 5 19.3 5 21 5 C20.05147657 7.96157034 19.08952872 10.91860731 18.125 13.875 C17.85558594 14.71675781 17.58617187 15.55851563 17.30859375 16.42578125 C17.04433594 17.23144531 16.78007813 18.03710938 16.5078125 18.8671875 C16.14647217 19.98262939 16.14647217 19.98262939 15.77783203 21.12060547 C15 23 15 23 13 25 C9.375 25.125 9.375 25.125 6 25 C6 23.68 6 22.36 6 21 C7.32 21 8.64 21 10 21 C8.68 17.04 7.36 13.08 6 9 C5.01 9 4.02 9 3 9 C3 11.31 3 13.62 3 16 C3.99 16 4.98 16 6 16 C6 17.32 6 18.64 6 20 C3.125 20.125 3.125 20.125 0 20 C-2 18 -2 18 -2.1953125 15.8359375 C-2.17210937 15.02382812 -2.14890625 14.21171875 -2.125 13.375 C-2.10695313 12.55773437 -2.08890625 11.74046875 -2.0703125 10.8984375 C-2.04710937 10.27195313 -2.02390625 9.64546875 -2 9 C-2.66 9 -3.32 9 -4 9 C-4 7.68 -4 6.36 -4 5 C-3.34 5 -2.68 5 -2 5 C-1.7834375 4.0409375 -1.7834375 4.0409375 -1.5625 3.0625 C-1 1 -1 1 0 0 Z " fill="#77787B" transform="translate(527,178)"/>
<path d="M0 0 C2.0745356 0.1490712 2.0745356 0.1490712 4 -1 C6.875 -1.3125 6.875 -1.3125 10 -1 C12.375 1 12.375 1 14 3 C13.01 3.33 12.02 3.66 11 4 C11 4.66 11 5.32 11 6 C11.99 6.33 12.98 6.66 14 7 C13.74438677 9.3431213 13.40729228 11.67843403 13 14 C9.82975235 15.58512383 6.45332972 15.42372144 3 15 C1 13.5 1 13.5 0 12 C0.37125 11.4225 0.7425 10.845 1.125 10.25 C2.29166667 8 2.29166667 8 1.125 5.75 C0.75375 5.1725 0.3825 4.595 0 4 C-1.32 4.33 -2.64 4.66 -4 5 C-4.33 8.3 -4.66 11.6 -5 15 C-6.65 15 -8.3 15 -10 15 C-10 10.05 -10 5.1 -10 0 C-3.41463415 -1.09756098 -3.41463415 -1.09756098 0 0 Z M5 3 C6.98 3.99 6.98 3.99 9 5 C8.67 4.34 8.34 3.68 8 3 C7.01 3 6.02 3 5 3 Z M5 9 C5 9.66 5 10.32 5 11 C6.32 10.67 7.64 10.34 9 10 C7.68 9.67 6.36 9.34 5 9 Z " fill="#77787B" transform="translate(501,183)"/>
<path d="M0 0 C2.5 1.8125 2.5 1.8125 4 4 C4 4.99 4 5.98 4 7 C1.625 7.125 1.625 7.125 -1 7 C-1.66 6.34 -2.32 5.68 -3 5 C-3.99 5.33 -4.98 5.66 -6 6 C-5.44570313 6.19335938 -4.89140625 6.38671875 -4.3203125 6.5859375 C-3.59585937 6.84632813 -2.87140625 7.10671875 -2.125 7.375 C-1.40570313 7.63023437 -0.68640625 7.88546875 0.0546875 8.1484375 C2 9 2 9 4 11 C4.66932271 17.13545817 4.66932271 17.13545817 2.5 19.9375 C-1.0554125 21.44855031 -4.19778883 21.70901889 -8 21 C-10.5 19.25 -10.5 19.25 -12 17 C-12 15.68 -12 14.36 -12 13 C-9.625 12.8125 -9.625 12.8125 -7 13 C-6.01 14.485 -6.01 14.485 -5 16 C-3.68 16 -2.36 16 -1 16 C-1 15.01 -1 14.02 -1 13 C-1.62648438 12.89042969 -2.25296875 12.78085938 -2.8984375 12.66796875 C-3.71570313 12.50941406 -4.53296875 12.35085937 -5.375 12.1875 C-6.59316406 11.96126953 -6.59316406 11.96126953 -7.8359375 11.73046875 C-10 11 -10 11 -12 8 C-11.8125 4.9375 -11.8125 4.9375 -11 2 C-7.32726283 -0.44849145 -4.26939032 -0.71299677 0 0 Z " fill="#77787B" transform="translate(354,177)"/>
<path d="M0 0 C1.65 0 3.3 0 5 0 C5.33 4.95 5.66 9.9 6 15 C7.65 15.33 9.3 15.66 11 16 C11.33 10.72 11.66 5.44 12 0 C13.65 0 15.3 0 17 0 C17.08139142 2.39652528 17.14067009 4.79025436 17.1875 7.1875 C17.21263672 7.86103516 17.23777344 8.53457031 17.26367188 9.22851562 C17.32931539 13.71415591 16.68855807 16.40396893 14 20 C12.43058802 21.56941198 10.85865006 21.2449847 8.6875 21.3125 C7.90761719 21.34988281 7.12773437 21.38726562 6.32421875 21.42578125 C4 21 4 21 1.72265625 19.52734375 C-0.80322029 15.82157931 -0.43850336 12.62182782 -0.25 8.25 C-0.23195313 7.45722656 -0.21390625 6.66445312 -0.1953125 5.84765625 C-0.14833082 3.89791652 -0.07659044 1.94880122 0 0 Z " fill="#77787B" transform="translate(417,177)"/>
<path d="M0 0 C1.98 0 3.96 0 6 0 C7.17538461 2.74656201 8.34049752 5.49674122 9.5 8.25 C9.83386719 9.02730469 10.16773438 9.80460938 10.51171875 10.60546875 C10.82753906 11.35957031 11.14335937 12.11367187 11.46875 12.890625 C11.90864258 13.92751465 11.90864258 13.92751465 12.35742188 14.98535156 C13 17 13 17 13 21 C11.35 21 9.7 21 8 21 C7.814375 20.360625 7.62875 19.72125 7.4375 19.0625 C6.05753944 16.57873787 6.05753944 16.57873787 2.375 16.25 C1.26125 16.1675 0.1475 16.085 -1 16 C-1.33 17.65 -1.66 19.3 -2 21 C-3.65 21 -5.3 21 -7 21 C-6.38169051 15.97525707 -4.87023224 11.75279506 -2.9375 7.125 C-2.65583984 6.43664062 -2.37417969 5.74828125 -2.08398438 5.0390625 C-1.39484734 3.35710091 -0.69819202 1.67822303 0 0 Z M2 8 C1.67 9.32 1.34 10.64 1 12 C2.32 11.67 3.64 11.34 5 11 C4.01 10.01 3.02 9.02 2 8 Z " fill="#77787B" transform="translate(240,177)"/>
<path d="M0 0 C1.32 0 2.64 0 4 0 C4.33 0.99 4.66 1.98 5 3 C5.62648438 3.04898438 6.25296875 3.09796875 6.8984375 3.1484375 C8.12433594 3.26058594 8.12433594 3.26058594 9.375 3.375 C10.59316406 3.47941406 10.59316406 3.47941406 11.8359375 3.5859375 C14 4 14 4 16 6 C16.33 5.34 16.66 4.68 17 4 C18.32 4.33 19.64 4.66 21 5 C20.29534531 6.98802578 19.56040302 8.96533728 18.8125 10.9375 C18.40644531 12.03964844 18.00039063 13.14179688 17.58203125 14.27734375 C16 17 16 17 13.32421875 17.87890625 C12.55722656 17.91886719 11.79023438 17.95882812 11 18 C11 17.01 11 16.02 11 15 C11.66 15 12.32 15 13 15 C12.34 12.69 11.68 10.38 11 8 C10.690625 8.804375 10.38125 9.60875 10.0625 10.4375 C9 13 9 13 8 14 C5.32941149 14.14115161 2.67567762 14.04247107 0 14 C0 9.38 0 4.76 0 0 Z M5 6 C4.67 7.65 4.34 9.3 4 11 C4.99 10.67 5.98 10.34 7 10 C6.67 8.68 6.34 7.36 6 6 C5.67 6 5.34 6 5 6 Z " fill="#77787B" transform="translate(312,152)"/>
<path d="M0 0 C3.3125 1 3.3125 1 5.3125 4 C5.61328125 6.15625 5.61328125 6.15625 5.625 8.5 C5.64175781 9.2734375 5.65851563 10.046875 5.67578125 10.84375 C5.22230667 13.53534103 4.49430939 14.39631983 2.3125 16 C-1.58254791 16.49573337 -3.78243717 16.58016848 -7.125 14.4375 C-9.31771887 11.01685857 -9.31757693 8.99048721 -8.6875 5 C-5.97713219 1.05764682 -4.84348632 0 0 0 Z M-2.6875 4 C-3.0175 4.66 -3.3475 5.32 -3.6875 6 C-2.3675 5.67 -1.0475 5.34 0.3125 5 C-0.6775 4.67 -1.6675 4.34 -2.6875 4 Z M-3.6875 10 C-3.3575 10.66 -3.0275 11.32 -2.6875 12 C-1.6975 12 -0.7075 12 0.3125 12 C0.3125 11.34 0.3125 10.68 0.3125 10 C-1.0075 10 -2.3275 10 -3.6875 10 Z " fill="#77787B" transform="translate(401.6875,182)"/>
<path d="M0 0 C3.3125 1 3.3125 1 5.3125 4 C5.61328125 6.15625 5.61328125 6.15625 5.625 8.5 C5.64175781 9.2734375 5.65851563 10.046875 5.67578125 10.84375 C5.22211173 13.5364981 4.50013342 14.40076454 2.3125 16 C-3.79514873 16.65439093 -3.79514873 16.65439093 -6.5625 14.625 C-8.85962797 11.30692627 -9.16193748 9.0327186 -8.6875 5 C-5.95681997 1.11084966 -4.82097089 0 0 0 Z M-2.6875 4 C-2.6875 4.66 -2.6875 5.32 -2.6875 6 C-1.6975 5.67 -0.7075 5.34 0.3125 5 C-0.6775 4.67 -1.6675 4.34 -2.6875 4 Z M-3.6875 10 C-3.3575 10.66 -3.0275 11.32 -2.6875 12 C-1.6975 12 -0.7075 12 0.3125 12 C0.3125 11.34 0.3125 10.68 0.3125 10 C-1.0075 10 -2.3275 10 -3.6875 10 Z " fill="#77787B" transform="translate(483.6875,182)"/>
<path d="M0 0 C0.99 0.66 1.98 1.32 3 2 C3.51171875 5.2578125 3.51171875 5.2578125 3.6875 9.125 C3.75324219 10.40632812 3.81898438 11.68765625 3.88671875 13.0078125 C3.92410156 13.99523437 3.96148437 14.98265625 4 16 C2.04196493 16.05389087 0.08351091 16.09274217 -1.875 16.125 C-3.51082031 16.15980469 -3.51082031 16.15980469 -5.1796875 16.1953125 C-8 16 -8 16 -10 14 C-10.125 10.875 -10.125 10.875 -10 8 C-9.34 7.67 -8.68 7.34 -8 7 C-8.66 5.68 -9.32 4.36 -10 3 C-6.6934797 -0.05217258 -4.45022302 -0.47342798 0 0 Z M-5 4 C-5 4.66 -5 5.32 -5 6 C-3.68 5.67 -2.36 5.34 -1 5 C-2.32 4.67 -3.64 4.34 -5 4 Z M-5 10 C-5 10.66 -5 11.32 -5 12 C-4.01 12 -3.02 12 -2 12 C-1.67 11.01 -1.34 10.02 -1 9 C-3.0745356 8.8509288 -3.0745356 8.8509288 -5 10 Z " fill="#77787B" transform="translate(329,182)"/>
<path d="M0 0 C1.9375 1.0625 1.9375 1.0625 3 3 C3.75471698 9.79245283 3.75471698 9.79245283 1.4375 13.5 C-1.9238388 15.56851618 -4.11959911 15.48505011 -8 15 C-10.375 13.875 -10.375 13.875 -12 12 C-13.26593281 8.20220157 -13.1713778 6.45415117 -11.75 2.6875 C-8.63259479 -2.09994372 -5.1243921 -1.09808402 0 0 Z M-5 3 C-5.99 3.99 -6.98 4.98 -8 6 C-7.34 7.65 -6.68 9.3 -6 11 C-4.68 10.67 -3.36 10.34 -2 10 C-1.74969023 7.58380177 -1.74969023 7.58380177 -2 5 C-2.99 4.34 -3.98 3.68 -5 3 Z " fill="#77787B" transform="translate(298,183)"/>
<path d="M0 0 C2.9375 0.375 2.9375 0.375 5.9375 2.375 C6.44921875 5.6328125 6.44921875 5.6328125 6.625 9.5 C6.69074219 10.78132812 6.75648438 12.06265625 6.82421875 13.3828125 C6.86160156 14.37023437 6.89898437 15.35765625 6.9375 16.375 C4.97946493 16.42889087 3.02101091 16.46774217 1.0625 16.5 C-0.57332031 16.53480469 -0.57332031 16.53480469 -2.2421875 16.5703125 C-5.0625 16.375 -5.0625 16.375 -7.0625 14.375 C-7.44536803 10.64203674 -7.21165785 9.59873677 -5.0625 6.375 C-5.7225 5.715 -6.3825 5.055 -7.0625 4.375 C-4.75537028 1.53545573 -3.70274405 0.45339723 0 0 Z M-1.0625 4.375 C-1.3925 5.035 -1.7225 5.695 -2.0625 6.375 C-0.7425 6.045 0.5775 5.715 1.9375 5.375 C0.9475 5.045 -0.0425 4.715 -1.0625 4.375 Z M-2.0625 10.375 C-2.0625 11.035 -2.0625 11.695 -2.0625 12.375 C-0.7425 12.045 0.5775 11.715 1.9375 11.375 C1.9375 10.715 1.9375 10.055 1.9375 9.375 C-0.1370356 9.2259288 -0.1370356 9.2259288 -2.0625 10.375 Z " fill="#77787B" transform="translate(376.0625,181.625)"/>
<path d="M0 0 C1.44207941 2.88415883 1.09394887 5.41721528 1.0625 8.625 C1.05347656 9.81351563 1.04445313 11.00203125 1.03515625 12.2265625 C1.02355469 13.14179688 1.01195312 14.05703125 1 15 C-0.65 15 -2.3 15 -4 15 C-4.33 11.37 -4.66 7.74 -5 4 C-5.66 4 -6.32 4 -7 4 C-7.33 7.63 -7.66 11.26 -8 15 C-9.65 15 -11.3 15 -13 15 C-13 10.05 -13 5.1 -13 0 C-4.58823529 -1.20168067 -4.58823529 -1.20168067 0 0 Z " fill="#77787B" transform="translate(316,183)"/>
<path d="M0 0 C3.96 0 7.92 0 12 0 C11.10429689 4.47851553 10.74999027 5.77175056 8 9 C9.65 9.33 11.3 9.66 13 10 C13 11.65 13 13.3 13 15 C8.38 15 3.76 15 -1 15 C-1 10 -1 10 1.5 7.1875 C2.7375 6.1046875 2.7375 6.1046875 4 5 C2.68 4.67 1.36 4.34 0 4 C0 2.68 0 1.36 0 0 Z " fill="#77787B" transform="translate(272,183)"/>
<path d="M0 0 C2.35438074 2.34874825 2.96845005 3.67524581 3.29296875 7.015625 C3.25816406 8.08296875 3.22335937 9.1503125 3.1875 10.25 C3.16042969 11.32765625 3.13335937 12.4053125 3.10546875 13.515625 C3.07066406 14.33546875 3.03585937 15.1553125 3 16 C1.35 16 -0.3 16 -2 16 C-2.33 12.37 -2.66 8.74 -3 5 C-3.66 5 -4.32 5 -5 5 C-5.66 8.63 -6.32 12.26 -7 16 C-8.32 16 -9.64 16 -11 16 C-11 11.05 -11 6.1 -11 1 C-2.76119403 -0.37313433 -2.76119403 -0.37313433 0 0 Z " fill="#77787B" transform="translate(448,182)"/>
<path d="M0 0 C1.98 0 3.96 0 6 0 C6.66 1.98 7.32 3.96 8 6 C8.99 4.02 9.98 2.04 11 0 C12.65 0 14.3 0 16 0 C14.36041242 5.23272633 12.61047965 10.15196636 10 15 C7.67578125 14.94140625 7.67578125 14.94140625 5 14 C3.77873594 11.56048735 2.95539793 9.51310518 2.1875 6.9375 C1.86362305 5.94266602 1.86362305 5.94266602 1.53320312 4.92773438 C1.00336242 3.29111532 0.4991794 1.64622994 0 0 Z " fill="#77787B" transform="translate(459,183)"/>
<path d="M0 0 C0 1.65 0 3.3 0 5 C0.66 5 1.32 5 2 5 C2 6.32 2 7.64 2 9 C1.34 9 0.68 9 0 9 C0 11.31 0 13.62 0 16 C0.66 16 1.32 16 2 16 C2.33 16.99 2.66 17.98 3 19 C2 20 2 20 -1 20.125 C-4 20 -4 20 -5 19 C-5.07205511 17.31391034 -5.08386068 15.62499341 -5.0625 13.9375 C-5.05347656 13.01839844 -5.04445313 12.09929687 -5.03515625 11.15234375 C-5.02355469 10.44207031 -5.01195312 9.73179687 -5 9 C-5.66 9 -6.32 9 -7 9 C-7 7.68 -7 6.36 -7 5 C-6.34 5 -5.68 5 -5 5 C-5 3.68 -5 2.36 -5 1 C-3 0 -3 0 0 0 Z " fill="#77787B" transform="translate(366,178)"/>
<path d="M0 0 C0 1.65 0 3.3 0 5 C0.99 5 1.98 5 3 5 C3 6.32 3 7.64 3 9 C2.01 9 1.02 9 0 9 C0 11.31 0 13.62 0 16 C0.99 16 1.98 16 3 16 C3 17.32 3 18.64 3 20 C0.125 20.125 0.125 20.125 -3 20 C-5.72032286 17.27967714 -5.46007896 15.41955477 -5.75 11.625 C-5.84796875 10.48289063 -5.9459375 9.34078125 -6.046875 8.1640625 C-6.00065792 5.04440968 -5.75437567 3.53543333 -4 1 C-2 0 -2 0 0 0 Z " fill="#77787B" transform="translate(390,178)"/>
<path d="M0 0 C0.99 0 1.98 0 3 0 C3 4.62 3 9.24 3 14 C-3.0546875 14.1953125 -3.0546875 14.1953125 -5 14 C-7 12 -7 12 -7.125 8.375 C-7.08375 7.26125 -7.0425 6.1475 -7 5 C-4.625 3.9375 -4.625 3.9375 -2 3 C-1.34 3.33 -0.68 3.66 0 4 C0 2.68 0 1.36 0 0 Z M-3 7 C-3.33 7.66 -3.66 8.32 -4 9 C-3.67 9.66 -3.34 10.32 -3 11 C-2.34 11 -1.68 11 -1 11 C-1 9.68 -1 8.36 -1 7 C-1.66 7 -2.32 7 -3 7 Z " fill="#77787B" transform="translate(303,152)"/>
<path d="M0 0 C0 1.32 0 2.64 0 4 C-1.32 4.33 -2.64 4.66 -4 5 C-4.33 8.3 -4.66 11.6 -5 15 C-6.65 15 -8.3 15 -10 15 C-10 10.05 -10 5.1 -10 0 C-3.25 -1.125 -3.25 -1.125 0 0 Z " fill="#77787B" transform="translate(264,183)"/>
<path d="M0 0 C7.37042925 -0.36248013 7.37042925 -0.36248013 10.0625 1.1875 C11.3945522 3.76280093 10.85352401 5.29717396 10 8 C9 9 9 9 5.9375 9.0625 C4.968125 9.041875 3.99875 9.02125 3 9 C3 10.65 3 12.3 3 14 C2.01 14 1.02 14 0 14 C0 9.38 0 4.76 0 0 Z M3 3 C3 3.99 3 4.98 3 6 C4.32 5.67 5.64 5.34 7 5 C6.67 4.34 6.34 3.68 6 3 C5.01 3 4.02 3 3 3 Z " fill="#77787B" transform="translate(233,152)"/>
<path d="M0 0 C3.63 0 7.26 0 11 0 C11 2.64 11 5.28 11 8 C7.37 8 3.74 8 0 8 C0 5.36 0 2.72 0 0 Z " fill="#A71843" transform="translate(1103,119)"/>
<path d="M0 0 C3.63 0 7.26 0 11 0 C11 2.64 11 5.28 11 8 C7.37 8 3.74 8 0 8 C0 5.36 0 2.72 0 0 Z " fill="#A71843" transform="translate(967,64)"/>
<path d="M0 0 C3.3 0 6.6 0 10 0 C10 2.64 10 5.28 10 8 C6.7 8 3.4 8 0 8 C0 5.36 0 2.72 0 0 Z " fill="#A71843" transform="translate(977,119)"/>
<path d="M0 0 C1.65 0 3.3 0 5 0 C5 4.95 5 9.9 5 15 C3.35 15 1.7 15 0 15 C0 10.05 0 5.1 0 0 Z " fill="#77787B" transform="translate(517,183)"/>
<path d="M0 0 C1.65 0 3.3 0 5 0 C5 4.95 5 9.9 5 15 C3.35 15 1.7 15 0 15 C0 10.05 0 5.1 0 0 Z " fill="#77787B" transform="translate(453,183)"/>
<path d="M0 0 C1.65 0 3.3 0 5 0 C5 4.95 5 9.9 5 15 C3.35 15 1.7 15 0 15 C0 10.05 0 5.1 0 0 Z " fill="#77787B" transform="translate(265,183)"/>
<path d="M0 0 C1.73030291 0.28484846 3.45920714 0.57819938 5.1875 0.875 C6.15042969 1.03742188 7.11335937 1.19984375 8.10546875 1.3671875 C10.95710547 1.99062225 13.40225181 2.66401522 16 4 C16.8125 7.125 16.8125 7.125 17 10 C15.68 9.67 14.36 9.34 13 9 C13.33 8.67 13.66 8.34 14 8 C9.38 6.02 4.76 4.04 0 2 C0 1.34 0 0.68 0 0 Z " fill="#F3B21A" transform="translate(716,96)"/>
<path d="M0 0 C2 1 2 1 4.0625 2.6875 C7.88800583 5.69906842 11.92681553 8.33778793 16 11 C14 12 14 12 10.99609375 11.0390625 C9.82175781 10.57242188 8.64742187 10.10578125 7.4375 9.625 C6.26058594 9.16351563 5.08367188 8.70203125 3.87109375 8.2265625 C1 7 1 7 0 6 C-0.04080783 4.00041636 -0.04254356 1.99954746 0 0 Z " fill="#F4B41A" transform="translate(799,126)"/>
<path d="M0 0 C1.4589426 0.47730838 2.91713496 0.95691042 4.375 1.4375 C5.18710937 1.70433594 5.99921875 1.97117187 6.8359375 2.24609375 C9 3 9 3 11 4 C11 5.32 11 6.64 11 8 C6.89160936 6.54997977 3.49655387 4.6020866 0 2 C0 1.34 0 0.68 0 0 Z " fill="#F2B11B" transform="translate(720,88)"/>
<path d="M0 0 C0.47050781 0.40992188 0.94101562 0.81984375 1.42578125 1.2421875 C2.04839844 1.78101563 2.67101562 2.31984375 3.3125 2.875 C4.23482422 3.67550781 4.23482422 3.67550781 5.17578125 4.4921875 C7.13498212 6.1640447 7.13498212 6.1640447 10 8 C10 8.66 10 9.32 10 10 C6.41005174 8.66659064 3.04479945 7.34884529 0 5 C-0.3125 2.3125 -0.3125 2.3125 0 0 Z " fill="#F7BA18" transform="translate(799,135)"/>
<path d="M0 0 C1.65 0 3.3 0 5 0 C5 1.65 5 3.3 5 5 C3.35 5 1.7 5 0 5 C0 3.35 0 1.7 0 0 Z " fill="#77787B" transform="translate(517,177)"/>
<path d="M0 0 C1.65 0 3.3 0 5 0 C5 1.65 5 3.3 5 5 C3.35 5 1.7 5 0 5 C0 3.35 0 1.7 0 0 Z " fill="#77787B" transform="translate(453,177)"/>
<path d="M0 0 C1.65 0 3.3 0 5 0 C5 1.65 5 3.3 5 5 C3.35 5 1.7 5 0 5 C0 3.35 0 1.7 0 0 Z " fill="#77787B" transform="translate(265,177)"/>
<path d="M0 0 C0.66 0.33 1.32 0.66 2 1 C0.15794162 3.54379491 -1.72478134 5.83312509 -4 8 C-4.99 7.67 -5.98 7.34 -7 7 C-4.69 4.69 -2.38 2.38 0 0 Z " fill="#F1AF1B" transform="translate(731,137)"/>
<path d="M0 0 C0.66 0 1.32 0 2 0 C0.52459016 5.6557377 0.52459016 5.6557377 -2 7.3125 C-2.66 7.539375 -3.32 7.76625 -4 8 C-4.99 8.495 -4.99 8.495 -6 9 C-4.4722133 5.56247993 -2.49818944 2.81046312 0 0 Z " fill="#F4B41A" transform="translate(793,71)"/>
<path d="M0 0 C3 1 3 1 4 3 C0.7 3.33 -2.6 3.66 -6 4 C-2 1 -2 1 0 0 Z " fill="#F2AF1B" transform="translate(722,126)"/>
<path d="M0 0 C0.33 0.66 0.66 1.32 1 2 C-1.64 2.99 -4.28 3.98 -7 5 C-7 4.34 -7 3.68 -7 3 C-7.66 2.67 -8.32 2.34 -9 2 C-6.03 1.34 -3.06 0.68 0 0 Z " fill="#ECA51E" transform="translate(818,95)"/>
</svg>
